<svg id="Calque_1" data-name="Calque 1" xmlns="http://www.w3.org/2000/svg" viewBox="0 0 498.85 144.74"><defs><style>.cls-1{fill:#576d64;}</style></defs><title>Plan de travail 2</title><rect class="cls-1" x="303.83" y="91.34" width="33.56" height="33.56" transform="translate(17.45 258.37) rotate(-45)"/><rect class="cls-1" x="339.48" y="55.69" width="33.56" height="33.56" transform="translate(53.1 273.13) rotate(-45)"/><rect class="cls-1" x="375.13" y="20.04" width="33.56" height="33.56" transform="translate(88.75 287.89) rotate(-45)"/><rect class="cls-1" x="232.53" y="91.34" width="33.56" height="33.56" transform="translate(-3.43 207.95) rotate(-45)"/><rect class="cls-1" x="268.18" y="55.69" width="33.56" height="33.56" transform="translate(32.22 222.72) rotate(-45)"/><rect class="cls-1" x="303.83" y="20.04" width="33.56" height="33.56" transform="translate(67.87 237.49) rotate(-45)"/><rect class="cls-1" x="161.76" y="91.86" width="33.56" height="33.56" transform="translate(-24.53 158.07) rotate(-45)"/><rect class="cls-1" x="197.41" y="56.21" width="33.56" height="33.56" transform="translate(11.12 172.83) rotate(-45)"/><rect class="cls-1" x="233.06" y="20.56" width="33.56" height="33.56" transform="translate(46.77 187.59) rotate(-45)"/><rect class="cls-1" x="375.13" y="91.34" width="33.56" height="33.56" transform="translate(38.33 308.78) rotate(-45)"/><rect class="cls-1" x="410.78" y="55.69" width="33.56" height="33.56" transform="translate(73.99 323.55) rotate(-45)"/><rect class="cls-1" x="446.42" y="20.04" width="33.56" height="33.56" transform="translate(109.63 338.31) rotate(-45)"/><rect class="cls-1" x="446.42" y="91.34" width="33.56" height="33.56" transform="translate(59.21 359.19) rotate(-45)"/><rect class="cls-1" x="125.82" y="55.92" width="33.56" height="33.56" transform="translate(-9.64 122.12) rotate(-45)"/><rect class="cls-1" x="161.47" y="20.27" width="33.56" height="33.56" transform="translate(26.01 136.89) rotate(-45)"/><rect class="cls-1" x="90.17" y="20.27" width="33.56" height="33.56" transform="translate(5.13 86.47) rotate(-45)"/><rect class="cls-1" x="90.17" y="91.57" width="33.56" height="33.56" transform="translate(-45.29 107.36) rotate(-45)"/><rect class="cls-1" x="18.87" y="91.57" width="33.56" height="33.56" transform="translate(-66.17 56.94) rotate(-45)"/><rect class="cls-1" x="54.52" y="55.92" width="33.56" height="33.56" transform="translate(-30.52 71.71) rotate(-45)"/><polygon class="cls-1" points="475.12 72.7 498.85 96.43 498.85 48.97 475.12 72.7"/><polygon class="cls-1" points="0 96.43 23.73 72.7 0 48.97 0 96.43"/><polygon class="cls-1" points="332.53 144.93 379.98 144.93 356.25 121.2 332.53 144.93"/><polygon class="cls-1" points="261.23 144.93 308.69 144.93 284.96 121.2 261.23 144.93"/><polygon class="cls-1" points="190.46 144.93 237.91 144.93 214.19 121.2 190.46 144.93"/><polygon class="cls-1" points="403.82 144.93 451.28 144.93 427.55 121.2 403.82 144.93"/><polygon class="cls-1" points="118.87 144.93 166.32 144.93 142.59 121.2 118.87 144.93"/><polygon class="cls-1" points="47.57 144.93 95.03 144.93 71.3 121.2 47.57 144.93"/><polygon class="cls-1" points="475.12 144.93 498.85 144.93 498.85 121.2 475.12 144.93"/><polygon class="cls-1" points="23.73 144.93 0 121.2 0 144.93 23.73 144.93"/><polygon class="cls-1" points="332.53 0 356.25 23.73 379.98 0 332.53 0"/><polygon class="cls-1" points="261.23 0 284.96 23.73 308.69 0 261.23 0"/><polygon class="cls-1" points="190.46 0 214.19 23.73 237.91 0 190.46 0"/><polygon class="cls-1" points="403.82 0 427.55 23.73 451.28 0 403.82 0"/><polygon class="cls-1" points="118.87 0 142.59 23.73 166.32 0 118.87 0"/><polygon class="cls-1" points="47.57 0 71.3 23.73 95.03 0 47.57 0"/><polygon class="cls-1" points="475.12 0 498.85 23.73 498.85 0 475.12 0"/><polygon class="cls-1" points="0 23.73 23.73 0 0 0 0 23.73"/><rect class="cls-1" x="18.87" y="20.27" width="33.56" height="33.56" transform="translate(-15.76 36.06) rotate(-45)"/></svg>