<svg enable-background="new 0 0 212.598 99.212" height="99.212" viewBox="0 0 212.598 99.212" width="212.598" xmlns="http://www.w3.org/2000/svg"><g fill="#bda27e"><path d="m73.592 29.125h-3.384v-5.499h1.043v4.6h2.341z"/><path d="m76.198 29.209c-.73 0-1.299-.274-1.706-.822s-.61-1.225-.61-2.03c0-.8.216-1.47.648-2.008.432-.539 1.003-.808 1.712-.808.714 0 1.279.269 1.694.808.415.538.623 1.212.623 2.02 0 .849-.216 1.534-.646 2.057-.432.522-1.003.783-1.715.783zm.009-.797c.357 0 .659-.148.906-.443s.371-.831.371-1.607c0-.631-.102-1.125-.306-1.484-.204-.358-.521-.538-.951-.538-.849 0-1.273.684-1.273 2.05 0 .664.108 1.167.324 1.509s.526.513.929.513z"/><path d="m83.256 23.626v3.533c0 .478-.054.846-.161 1.104s-.315.48-.623.667-.683.28-1.126.28c-.448 0-.817-.081-1.105-.242-.289-.161-.497-.382-.623-.663s-.189-.638-.189-1.074v-3.605h1.011v3.533c0 .483.102.801.304.953s.438.228.707.228c.309 0 .556-.081.741-.244s.278-.475.278-.937v-3.533z"/><path d="m88.674 29.125h-1.048l-.854-2.26h-1.394v2.26h-.991v-5.499h2.385c.663 0 1.15.149 1.462.449.312.299.467.687.467 1.162 0 .706-.33 1.192-.991 1.458zm-3.295-3.054h1.233c.357 0 .623-.075.797-.226.174-.15.262-.357.262-.62 0-.242-.086-.437-.258-.586s-.412-.224-.721-.224h-1.313z"/><path d="m95.083 29.125h-1.011v-4.814l-1.523 4.814h-.52l-1.531-4.814v4.814h-.81v-5.499h1.551l1.152 3.541 1.132-3.541h1.559v5.499z"/><path d="m100.61 29.125h-1.059l-.439-1.309h-2.115l-.431 1.309h-.846l1.825-5.499h1.221zm-1.764-2.103-.802-2.454-.802 2.454z"/><path d="m105.557 29.125h-1.048l-.854-2.26h-1.394v2.26h-.991v-5.499h2.385c.663 0 1.15.149 1.462.449.312.299.467.687.467 1.162 0 .706-.33 1.192-.991 1.458zm-3.295-3.054h1.233c.357 0 .623-.075.797-.226.174-.15.262-.357.262-.62 0-.242-.086-.437-.258-.586s-.412-.224-.721-.224h-1.313z"/><path d="m107.563 29.125h-.991v-5.499h.991z"/><path d="m112.925 29.125h-.963l-2.087-3.513c-.032-.054-.085-.141-.157-.262-.032-.054-.082-.138-.148-.254v4.028h-.798v-5.499h1.096l1.925 3.239c.017.027.134.224.351.592v-3.831h.782v5.5z"/><path d="m12.981 33.933h-.535v-3.841l-1.428 3.841h-.374l-1.443-3.841v3.841h-.467v-4.399h.816l1.329 3.518 1.297-3.518h.805z"/><path d="m16.926 33.449v.483h-2.845v-4.399h2.784v.483h-2.233v1.398h1.772v.448h-1.772v1.585h2.294zm-.464-4.924-1.334.609-.139-.261 1.278-.735z"/><path d="m20.861 33.933h-.578l-.811-1.905h-1.26v1.905h-.516v-4.399h1.733c.471 0 .819.128 1.046.385s.34.538.34.843c0 .234-.063.458-.19.673s-.336.369-.628.461zm-2.649-2.353h1.15c.303 0 .529-.08.678-.24s.224-.356.224-.588-.079-.413-.237-.542-.357-.193-.598-.193h-1.218v1.563z"/><path d="m22.292 33.933h-.551v-4.399h.551z"/><path d="m26.63 33.933h-.535l-2.275-3.835.007.29c.006.11.009.202.009.277v3.268h-.444v-4.399h.689l2.127 3.585-.006-.306c-.004-.12-.006-.227-.006-.319v-2.96h.435v4.399z"/><path d="m27.729 33.933v-4.399h1.476c.621 0 1.104.211 1.45.635.346.423.519.941.519 1.553 0 .621-.168 1.145-.506 1.571s-.765.64-1.283.64zm.55-.468h.893c.473 0 .832-.163 1.077-.49s.367-.757.367-1.292c0-.434-.117-.824-.35-1.17s-.598-.519-1.094-.519h-.893z"/><path d="m33.516 34.023c-.565 0-1.005-.22-1.321-.66-.316-.439-.474-.979-.474-1.617 0-.667.166-1.217.496-1.651.331-.434.77-.651 1.315-.651.543 0 .98.213 1.309.64s.493.965.493 1.614c0 .624-.16 1.167-.479 1.63s-.765.695-1.339.695zm.013-.448c.384 0 .685-.175.902-.525.217-.351.325-.802.325-1.355 0-.567-.112-1.009-.337-1.326-.224-.316-.522-.474-.894-.474-.376 0-.675.171-.896.513s-.332.789-.332 1.341c0 .54.112.979.335 1.318.224.339.523.508.897.508z"/><path d="m38.76 33.449v.483h-2.597v-4.399h.564v3.916z"/><path d="m42.589 30.428h-.551v-4.399h1.56c.488 0 .848.133 1.08.398.232.266.348.568.348.907 0 .378-.126.691-.379.938s-.583.371-.991.371h-1.067zm0-2.243h1.012c.26 0 .469-.078.628-.233.159-.156.238-.361.238-.617 0-.219-.071-.415-.213-.586-.142-.172-.347-.258-.615-.258h-1.051v1.694z"/><path d="m48.235 26.029h.458v2.874c0 .576-.142.989-.424 1.24-.283.25-.653.376-1.11.376-.509 0-.886-.129-1.131-.387s-.367-.667-.367-1.229v-2.874h.551v2.874c0 .342.04.583.119.723s.2.243.361.31.33.1.506.1c.339 0 .597-.089.773-.268s.264-.467.264-.865z"/><path d="m52.985 28.211v2.278h-.336l-.152-.551c-.271.387-.674.58-1.209.58-.581 0-1.032-.218-1.354-.655-.323-.437-.484-.966-.484-1.59 0-.667.171-1.222.512-1.667.342-.445.806-.667 1.393-.667.81 0 1.338.425 1.585 1.276l-.522.125c-.075-.327-.216-.564-.422-.712s-.432-.223-.677-.223c-.434 0-.754.175-.96.526s-.309.79-.309 1.319c0 .57.115 1.016.346 1.337s.545.482.943.482c.309 0 .567-.103.775-.308.207-.206.311-.49.311-.851 0-.067-.002-.146-.006-.239h-1.089v-.461h1.655z"/><path d="m56.843 29.945v.483h-2.845v-4.399h2.784v.483h-2.233v1.398h1.772v.448h-1.772v1.585h2.294z"/><path d="m58.941 30.428h-.551v-3.916h-1.26v-.483h3.074v.483h-1.263z"/><path d="m62 37.311v.483h-2.597v-4.399h.564v3.916z"/><path d="m65.598 37.794h-.563l-.442-1.286h-1.633l-.394 1.286h-.46l1.429-4.399h.624zm-1.123-1.698-.682-2.114-.68 2.114z"/><path d="m68.532 33.395h.458v2.874c0 .576-.142.989-.424 1.24-.283.25-.653.376-1.11.376-.509 0-.886-.129-1.131-.387s-.367-.667-.367-1.229v-2.874h.551v2.874c0 .342.04.583.119.723s.2.243.361.31.33.1.506.1c.339 0 .597-.089.773-.268s.264-.467.264-.865z"/><path d="m73.189 37.794h-.578l-.811-1.905h-1.26v1.905h-.516v-4.399h1.733c.471 0 .819.128 1.046.385s.34.538.34.843c0 .234-.063.458-.19.673s-.336.369-.628.461zm-2.649-2.353h1.15c.303 0 .529-.08.678-.24s.224-.356.224-.588-.079-.413-.237-.542-.357-.193-.598-.193h-1.217z"/><path d="m74.62 37.794h-.551v-4.399h.551z"/><path d="m75.235 36.63.496-.113c.2.6.633.899 1.299.899.348 0 .61-.074.786-.222.176-.147.264-.345.264-.593 0-.188-.067-.338-.201-.453s-.29-.193-.465-.236l-.88-.217c-.228-.058-.414-.128-.559-.211s-.268-.21-.369-.382-.152-.369-.152-.591c0-.368.139-.661.416-.879s.633-.328 1.066-.328c.799 0 1.325.362 1.576 1.086l-.5.148c-.058-.258-.194-.453-.409-.585s-.444-.198-.687-.198c-.241 0-.455.064-.643.191s-.282.308-.282.541c0 .326.238.546.714.661l.823.192c.752.181 1.128.586 1.128 1.215 0 .38-.142.697-.424.949-.283.252-.681.379-1.194.379-.909.001-1.511-.417-1.803-1.253z"/><path d="m25.158 53.388.503.113c-.241.971-.784 1.456-1.631 1.456-.556 0-.993-.225-1.31-.674s-.475-1.002-.475-1.657c0-.678.166-1.221.496-1.632.331-.411.775-.616 1.331-.616.825 0 1.354.472 1.589 1.415l-.519.103c-.189-.7-.546-1.05-1.073-1.05-.389 0-.69.163-.904.488-.214.326-.32.783-.32 1.372 0 .539.109.972.329 1.297s.509.488.87.488c.56 0 .931-.367 1.114-1.103z"/><path d="m29.486 54.868h-.551v-2.095h-2.04v2.095h-.551v-4.399h.551v1.821h2.04v-1.821h.551z"/><path d="m33.547 54.868h-.563l-.442-1.286h-1.632l-.394 1.286h-.46l1.429-4.399h.624zm-1.122-1.699-.682-2.114-.68 2.114z"/><path d="m37.285 54.868h-.578l-.811-1.904h-1.26v1.904h-.516v-4.399h1.733c.471 0 .819.128 1.046.385s.34.538.34.843c0 .234-.063.459-.19.673-.127.216-.336.369-.628.461zm-2.649-2.353h1.15c.303 0 .529-.08.678-.24s.224-.356.224-.588-.079-.412-.237-.542c-.158-.129-.357-.193-.598-.193h-1.218v1.563z"/><path d="m40.762 54.384v.483h-2.597v-4.399h.564v3.916z"/><path d="m44.242 54.384v.483h-2.845v-4.399h2.784v.483h-2.233v1.399h1.772v.447h-1.772v1.586h2.294z"/><path d="m47.98 50.469-1.482 4.399h-.532l-1.482-4.399h.577l1.226 3.628 1.214-3.628z"/><path d="m51.279 54.868h-.563l-.442-1.286h-1.632l-.394 1.286h-.46l1.429-4.399h.624zm-1.122-1.699-.682-2.114-.68 2.114z"/><path d="m54.449 54.384v.483h-2.597v-4.399h.564v3.916z"/><path d="m61.854 56.49v.483h-2.597v-4.398h.564v3.915z"/><path d="m65.452 56.973h-.563l-.442-1.286h-1.632l-.394 1.286h-.46l1.429-4.398h.624zm-1.122-1.698-.682-2.114-.68 2.114z"/><path d="m70.839 56.973h-.578l-.811-1.904h-1.26v1.904h-.516v-4.398h1.733c.471 0 .819.128 1.046.385s.34.537.34.843c0 .234-.063.459-.19.673-.127.216-.336.369-.628.461zm-2.649-2.352h1.15c.303 0 .529-.08.678-.24s.224-.356.224-.588-.079-.413-.237-.542-.357-.193-.598-.193h-1.217z"/><path d="m73.158 57.063c-.565 0-1.005-.22-1.321-.659s-.474-.979-.474-1.617c0-.667.166-1.217.496-1.651.331-.435.77-.651 1.315-.651.543 0 .98.214 1.309.641s.493.965.493 1.613c0 .624-.16 1.167-.479 1.631-.319.462-.766.693-1.339.693zm.013-.447c.384 0 .685-.176.902-.526.217-.351.325-.802.325-1.354 0-.567-.112-1.01-.337-1.325-.224-.316-.522-.475-.894-.475-.376 0-.675.171-.896.513s-.332.789-.332 1.342c0 .54.112.979.335 1.317.224.338.523.508.897.508z"/><path d="m77.337 57.063c-.565 0-1.008-.215-1.329-.646s-.482-.968-.482-1.61c0-.684.167-1.242.5-1.674.333-.433.769-.648 1.309-.648.526 0 .958.206 1.297.619s.508.958.508 1.635c0 .563-.127 1.058-.38 1.48-.253.424-.578.688-.973.79l-.003.062c0 .322.195.483.586.483.187 0 .355-.014.506-.042v.441c-.146.045-.297.067-.454.067-.337 0-.597-.07-.778-.213s-.285-.39-.307-.744zm-.003-.447c.384 0 .685-.176.902-.526.217-.351.325-.802.325-1.354 0-.567-.112-1.01-.337-1.325-.224-.316-.522-.475-.894-.475-.376 0-.675.171-.896.513s-.332.789-.332 1.342c0 .54.112.979.335 1.317.225.338.523.508.897.508z"/><path d="m82.474 52.575h.458v2.873c0 .576-.142.989-.424 1.24-.283.25-.653.375-1.11.375-.509 0-.886-.129-1.131-.387s-.367-.667-.367-1.229v-2.873h.551v2.873c0 .342.04.583.119.723s.2.243.361.31.33.1.506.1c.339 0 .597-.089.773-.268.176-.178.264-.466.264-.864z"/><path d="m86.812 56.49v.483h-2.845v-4.398h2.784v.482h-2.233v1.399h1.772v.447h-1.772v1.586h2.294z"/><path d="m54.763 63.574v-4.398h1.476c.621 0 1.104.211 1.45.635.346.423.519.94.519 1.553 0 .621-.168 1.145-.506 1.571s-.765.64-1.283.64h-1.656zm.55-.467h.893c.473 0 .832-.164 1.077-.49s.367-.758.367-1.292c0-.435-.117-.824-.35-1.17s-.598-.52-1.094-.52h-.893z"/><path d="m59.638 59.175v.653l-.435.771h-.226l.319-.771h-.319v-.653z"/><path d="m63.645 63.574h-.563l-.442-1.286h-1.632l-.394 1.286h-.46l1.429-4.398h.624zm-1.123-1.699-.682-2.114-.68 2.114z"/><path d="m67.457 63.574h-.535l-2.275-3.835.007.29c.006.109.009.202.009.277v3.268h-.444v-4.398h.689l2.127 3.584-.006-.306c-.004-.12-.006-.227-.006-.318v-2.96h.435v4.398z"/><path d="m69.883 63.574h-.551v-3.916h-1.26v-.482h3.074v.482h-1.263z"/><path d="m74.901 63.574h-.551v-2.095h-2.04v2.095h-.551v-4.398h.551v1.82h2.04v-1.82h.551z"/><path d="m78.845 63.09v.483h-2.845v-4.398h2.784v.482h-2.233v1.399h1.772v.447h-1.772v1.586h2.294zm-.464-4.923-1.334.608-.139-.261 1.278-.734z"/><path d="m82.78 63.574h-.578l-.811-1.904h-1.26v1.904h-.516v-4.398h1.733c.471 0 .819.128 1.046.385s.34.537.34.843c0 .234-.063.459-.19.673-.127.216-.336.369-.628.461zm-2.649-2.353h1.15c.303 0 .529-.08.678-.24s.224-.356.224-.588-.079-.413-.237-.542-.357-.193-.598-.193h-1.218v1.563z"/><path d="m85.099 63.664c-.565 0-1.005-.22-1.321-.659s-.474-.979-.474-1.617c0-.667.166-1.217.496-1.651.331-.435.77-.651 1.315-.651.543 0 .98.214 1.309.641s.493.965.493 1.613c0 .624-.16 1.167-.479 1.631-.319.461-.766.693-1.339.693zm.013-.448c.384 0 .685-.176.902-.526.217-.351.325-.802.325-1.354 0-.567-.112-1.01-.337-1.325-.224-.316-.522-.475-.894-.475-.376 0-.675.171-.896.513s-.332.789-.332 1.342c0 .54.112.979.335 1.317.224.338.523.508.897.508z"/><path d="m90.983 63.574h-.535l-2.275-3.835.007.29c.006.109.009.202.009.277v3.268h-.444v-4.398h.689l2.127 3.584-.006-.306c-.004-.12-.006-.227-.006-.318v-2.96h.435v4.398z"/><path d="m90.83 69.374.496-.113c.2.6.633.899 1.299.899.348 0 .61-.074.786-.222s.264-.346.264-.594c0-.188-.067-.338-.201-.452s-.29-.193-.465-.236l-.88-.217c-.228-.059-.414-.129-.559-.212-.145-.082-.268-.21-.369-.382s-.152-.369-.152-.591c0-.368.139-.661.416-.879.277-.219.633-.328 1.066-.328.799 0 1.325.362 1.576 1.086l-.5.148c-.058-.258-.194-.453-.409-.585s-.444-.198-.687-.198c-.241 0-.455.063-.643.191-.188.127-.282.308-.282.54 0 .326.238.547.714.661l.823.192c.752.181 1.128.586 1.128 1.216 0 .38-.142.696-.424.949-.283.252-.681.378-1.194.378-.909.001-1.511-.416-1.803-1.251z"/><path d="m96.265 70.537h-.551v-3.916h-1.26v-.482h3.074v.482h-1.263z"/><path d="m102.636 70.053v.483h-2.845v-4.398h2.784v.482h-2.233v1.399h1.772v.447h-1.772v1.586h2.294z"/><path d="m102.923 69.374.496-.113c.2.6.633.899 1.299.899.348 0 .61-.074.786-.222s.264-.346.264-.594c0-.188-.067-.338-.201-.452s-.29-.193-.465-.236l-.88-.217c-.228-.059-.414-.129-.559-.212-.145-.082-.268-.21-.369-.382s-.152-.369-.152-.591c0-.368.139-.661.416-.879.277-.219.633-.328 1.066-.328.799 0 1.325.362 1.576 1.086l-.5.148c-.058-.258-.194-.453-.409-.585s-.444-.198-.687-.198c-.241 0-.455.063-.643.191-.188.127-.282.308-.282.54 0 .326.238.547.714.661l.823.192c.752.181 1.128.586 1.128 1.216 0 .38-.143.696-.424.949-.283.252-.681.378-1.194.378-.91.001-1.511-.416-1.803-1.251z"/><path d="m108.359 70.537h-.551v-3.916h-1.261v-.482h3.075v.482h-1.264v3.916z"/><path d="m113.08 70.053v.483h-2.846v-4.398h2.785v.482h-2.233v1.399h1.772v.447h-1.772v1.586h2.294zm-2.352-4.924.201-.387 1.271.734-.135.261z"/><path d="m116.819 66.138-1.482 4.398h-.532l-1.482-4.398h.577l1.226 3.628 1.215-3.628z"/><path d="m120.237 70.053v.483h-2.846v-4.398h2.785v.482h-2.233v1.399h1.772v.447h-1.772v1.586h2.294z"/><path d="m96.319 72.738v3.057c0 .533-.121.905-.361 1.116-.241.211-.56.315-.958.315-.212 0-.426-.029-.641-.09v-.451c.21.045.402.067.574.067.245 0 .425-.036.542-.109.116-.073.194-.168.233-.284s.06-.304.06-.564v-3.057z"/><path d="m100.239 77.136h-.563l-.442-1.286h-1.632l-.394 1.286h-.46l1.429-4.398h.623zm-1.122-1.698-.682-2.114-.68 2.114z"/><path d="m104.051 77.136h-.535l-2.275-3.835.007.29c.006.109.009.202.009.277v3.268h-.444v-4.398h.689l2.127 3.584-.006-.306c-.004-.12-.006-.227-.006-.318v-2.96h.435v4.398z"/><path d="m104.667 75.973.496-.113c.2.6.633.899 1.298.899.349 0 .61-.074.787-.222.176-.147.264-.346.264-.594 0-.188-.067-.338-.201-.452s-.289-.193-.466-.236l-.88-.217c-.228-.059-.414-.129-.559-.212-.145-.082-.268-.21-.369-.382s-.152-.369-.152-.591c0-.368.139-.661.416-.879.277-.219.633-.328 1.066-.328.8 0 1.325.362 1.576 1.086l-.499.148c-.059-.258-.194-.453-.409-.585s-.443-.198-.687-.198c-.241 0-.455.063-.643.191-.188.127-.282.308-.282.54 0 .326.238.547.715.661l.822.192c.752.181 1.128.586 1.128 1.216 0 .38-.142.696-.424.949-.282.252-.681.378-1.194.378-.91.002-1.512-.415-1.803-1.251z"/><path d="m110.426 77.226c-.565 0-1.006-.22-1.321-.659-.316-.439-.475-.979-.475-1.617 0-.667.166-1.217.497-1.651.33-.435.769-.651 1.314-.651.544 0 .979.214 1.309.641s.493.965.493 1.613c0 .624-.16 1.167-.479 1.631-.319.462-.765.693-1.338.693zm.012-.447c.385 0 .686-.176.902-.526s.325-.802.325-1.354c0-.567-.112-1.01-.337-1.325-.225-.316-.522-.475-.895-.475-.376 0-.674.171-.896.513s-.332.789-.332 1.342c0 .54.112.979.335 1.317.226.338.524.508.898.508z"/><path d="m116.31 77.136h-.535l-2.275-3.835.007.29c.006.109.01.202.01.277v3.268h-.445v-4.398h.689l2.127 3.584-.006-.306c-.005-.12-.007-.227-.007-.318v-2.96h.436v4.398z"/><path d="m74.005 87.782h-.578l-.811-1.904h-1.26v1.904h-.516v-4.398h1.733c.471 0 .819.128 1.046.385s.34.537.34.843c0 .234-.063.459-.19.673-.127.216-.336.369-.628.461zm-2.649-2.353h1.15c.303 0 .529-.08.678-.24s.224-.356.224-.588-.079-.413-.237-.542-.357-.193-.598-.193h-1.218v1.563z"/><path d="m76.323 87.872c-.565 0-1.005-.22-1.321-.659s-.474-.979-.474-1.617c0-.667.166-1.217.496-1.651.331-.435.77-.651 1.315-.651.543 0 .98.214 1.309.641s.493.965.493 1.613c0 .624-.16 1.167-.479 1.631-.319.461-.765.693-1.339.693zm.013-.448c.384 0 .685-.176.902-.526.217-.351.325-.802.325-1.354 0-.567-.112-1.01-.337-1.325-.224-.316-.522-.475-.894-.475-.376 0-.675.171-.896.513s-.332.789-.332 1.342c0 .54.112.979.335 1.317.225.338.523.508.897.508z"/><path d="m82.227 85.565v2.278h-.336l-.152-.552c-.271.387-.674.58-1.209.58-.581 0-1.032-.218-1.354-.654-.323-.437-.484-.967-.484-1.59 0-.666.171-1.223.512-1.667.342-.445.806-.668 1.393-.668.81 0 1.338.426 1.585 1.276l-.522.126c-.075-.327-.216-.564-.422-.713-.206-.147-.432-.222-.677-.222-.434 0-.754.175-.96.525-.206.351-.309.79-.309 1.319 0 .569.115 1.016.346 1.337s.545.482.943.482c.309 0 .567-.104.775-.309.207-.206.311-.489.311-.852 0-.066-.002-.146-.006-.238h-1.089v-.461h1.655z"/><path d="m86.478 87.782h-.535l-2.275-3.835.007.29c.006.109.009.202.009.277v3.268h-.444v-4.398h.689l2.127 3.584-.006-.306c-.004-.12-.006-.227-.006-.318v-2.96h.435v4.398z"/><path d="m90.422 87.298v.483h-2.845v-4.398h2.784v.482h-2.233v1.399h1.772v.447h-1.772v1.586h2.294z"/><path d="m90.709 86.619.496-.113c.2.6.633.899 1.299.899.348 0 .61-.074.786-.222s.264-.346.264-.594c0-.188-.067-.338-.201-.452s-.29-.193-.465-.236l-.88-.217c-.228-.059-.414-.129-.559-.212-.145-.082-.268-.21-.369-.382s-.152-.369-.152-.591c0-.368.139-.661.416-.879.277-.219.633-.328 1.066-.328.799 0 1.325.362 1.576 1.086l-.5.148c-.058-.258-.194-.453-.409-.585s-.444-.198-.687-.198c-.241 0-.455.063-.643.191-.188.127-.282.308-.282.54 0 .326.238.547.714.661l.823.192c.752.181 1.128.586 1.128 1.216 0 .38-.142.696-.424.949-.283.252-.681.378-1.194.378-.909.002-1.511-.415-1.803-1.251z"/><path d="m110.002 87.298v.483h-2.598v-4.398h.564v3.915z"/><path d="m113.482 87.298v.483h-2.846v-4.398h2.785v.482h-2.233v1.399h1.772v.447h-1.772v1.586h2.294z"/><path d="m116.454 87.782h-.552v-4.398h1.561c.487 0 .847.132 1.079.397s.348.567.348.907c0 .378-.126.69-.378.938-.253.247-.583.371-.991.371h-1.066v1.785zm0-2.243h1.012c.26 0 .469-.078.628-.233.159-.156.238-.361.238-.617 0-.219-.07-.415-.212-.587s-.348-.258-.616-.258h-1.05z"/><path d="m122.101 83.383h.457v2.873c0 .576-.141.989-.424 1.24-.282.25-.652.375-1.109.375-.51 0-.887-.129-1.132-.387s-.367-.667-.367-1.229v-2.873h.551v2.873c0 .342.04.583.119.723.08.14.2.243.361.31s.33.1.506.1c.34 0 .598-.089.773-.268.176-.178.265-.466.265-.864z"/><path d="m126.473 83.383-1.473 2.549v1.85h-.551v-1.85l-1.473-2.549h.651l1.168 2.021 1.175-2.021z"/><path d="m128.126 86.619.497-.113c.199.6.632.899 1.298.899.349 0 .61-.074.787-.222.176-.147.264-.346.264-.594 0-.188-.067-.338-.201-.452s-.289-.193-.466-.236l-.88-.217c-.228-.059-.414-.129-.559-.212-.146-.082-.269-.21-.369-.382-.102-.172-.151-.369-.151-.591 0-.368.139-.661.415-.879.277-.219.633-.328 1.067-.328.799 0 1.324.362 1.575 1.086l-.499.148c-.059-.258-.194-.453-.409-.585s-.444-.198-.687-.198c-.241 0-.455.063-.643.191-.188.127-.282.308-.282.54 0 .326.238.547.715.661l.822.192c.752.181 1.128.586 1.128 1.216 0 .38-.142.696-.424.949-.282.252-.681.378-1.194.378-.91.002-1.512-.415-1.804-1.251z"/><path d="m133.563 87.782h-.551v-3.916h-1.261v-.482h3.075v.482h-1.264v3.916z"/><path d="m138.284 87.298v.483h-2.846v-4.398h2.785v.482h-2.233v1.399h1.772v.447h-1.772v1.586h2.294z"/><path d="m111.348 94.382h-.578l-.811-1.904h-1.261v1.904h-.516v-4.398h1.734c.471 0 .818.128 1.046.385.227.257.34.537.34.843 0 .234-.063.459-.19.673-.127.216-.336.369-.629.461zm-2.65-2.352h1.15c.304 0 .529-.08.679-.24s.224-.356.224-.588-.078-.413-.236-.542-.357-.193-.598-.193h-1.219z"/><path d="m115.072 93.899v.483h-2.846v-4.398h2.785v.482h-2.233v1.399h1.772v.447h-1.772v1.586h2.294zm-.464-4.924-1.334.608-.139-.261 1.277-.734z"/><path d="m116.395 94.382h-.552v-4.398h1.561c.487 0 .847.132 1.079.397s.348.567.348.907c0 .378-.126.69-.378.938-.253.247-.583.371-.991.371h-1.066v1.785zm0-2.243h1.012c.26 0 .469-.078.628-.233.159-.156.238-.361.238-.617 0-.219-.07-.415-.212-.587s-.348-.258-.616-.258h-1.05z"/><path d="m122.231 94.382h-.562l-.442-1.286h-1.633l-.394 1.286h-.461l1.43-4.398h.623zm-1.123-1.698-.681-2.114-.681 2.114z"/><path d="m125.969 94.382h-.578l-.811-1.904h-1.261v1.904h-.516v-4.398h1.734c.471 0 .818.128 1.046.385.227.257.34.537.34.843 0 .234-.063.459-.19.673-.127.216-.336.369-.629.461zm-2.65-2.352h1.15c.304 0 .529-.08.679-.24s.224-.356.224-.588-.078-.413-.236-.542-.357-.193-.598-.193h-1.219z"/><path d="m129.812 94.382h-.562l-.442-1.286h-1.633l-.394 1.286h-.461l1.43-4.398h.623zm-1.124-1.698-.681-2.114-.681 2.114z"/><path d="m130.384 94.382v-4.398h1.477c.62 0 1.104.211 1.45.635.346.423.519.94.519 1.553 0 .621-.169 1.145-.506 1.571-.338.427-.765.64-1.283.64h-1.657zm.552-.466h.893c.473 0 .831-.164 1.076-.49s.367-.758.367-1.292c0-.435-.116-.824-.35-1.17s-.598-.52-1.094-.52h-.893v3.472z"/><path d="m137.499 93.899v.483h-2.846v-4.398h2.785v.482h-2.233v1.399h1.772v.447h-1.772v1.586h2.294z"/><path d="m138.25 68.431h-.552v-4.398h1.561c.487 0 .847.132 1.079.397s.348.567.348.907c0 .378-.126.69-.378.938-.253.247-.583.371-.991.371h-1.066v1.785zm0-2.243h1.012c.26 0 .469-.078.628-.233.159-.156.238-.361.238-.617 0-.219-.07-.415-.212-.587s-.348-.258-.616-.258h-1.05z"/><path d="m144.234 67.948v.483h-2.846v-4.398h2.785v.482h-2.233v1.399h1.772v.447h-1.772v1.586h2.294z"/><path d="m148.169 68.431h-.578l-.811-1.904h-1.261v1.904h-.516v-4.398h1.734c.471 0 .818.128 1.046.385.227.257.34.537.34.843 0 .234-.063.459-.19.673-.127.216-.336.369-.629.461zm-2.649-2.352h1.15c.304 0 .529-.08.679-.24s.224-.356.224-.588-.078-.413-.236-.542-.357-.193-.598-.193h-1.219z"/><path d="m150.33 68.431h-.551v-3.916h-1.261v-.482h3.075v.482h-1.264v3.916z"/><path d="m154.713 64.033h.457v2.873c0 .576-.141.989-.424 1.24-.282.25-.652.375-1.109.375-.51 0-.887-.129-1.132-.387s-.367-.667-.367-1.229v-2.873h.551v2.873c0 .342.04.583.119.723.08.14.2.243.361.31s.33.1.506.1c.34 0 .598-.089.773-.268.176-.178.265-.466.265-.864z"/><path d="m156.757 68.431h-.552v-4.398h.552z"/><path d="m157.371 67.268.497-.113c.199.6.632.899 1.298.899.349 0 .61-.074.787-.222.176-.147.264-.346.264-.594 0-.188-.067-.338-.201-.452s-.289-.193-.466-.236l-.88-.217c-.228-.059-.414-.129-.559-.212-.146-.082-.269-.21-.369-.382-.102-.172-.151-.369-.151-.591 0-.368.139-.661.415-.879.277-.219.633-.328 1.067-.328.799 0 1.324.362 1.575 1.086l-.499.148c-.059-.258-.194-.453-.409-.585s-.444-.198-.687-.198c-.241 0-.455.063-.643.191-.188.127-.282.308-.282.54 0 .326.238.547.715.661l.822.192c.752.181 1.128.586 1.128 1.216 0 .38-.142.696-.424.949-.282.252-.681.378-1.194.378-.91.002-1.512-.415-1.804-1.251z"/><path d="m108.254 54.417-1.482 4.398h-.532l-1.482-4.398h.577l1.227 3.628 1.214-3.628z"/><path d="m109.379 58.815h-.552v-4.398h.552z"/><path d="m113.074 58.332v.483h-2.598v-4.398h.564v3.915z"/><path d="m116.307 58.332v.483h-2.598v-4.398h.564v3.915z"/><path d="m119.787 58.332v.483h-2.846v-4.398h2.785v.482h-2.233v1.399h1.772v.447h-1.772v1.586h2.294z"/><path d="m123.155 58.332v.483h-2.598v-4.398h.564v3.915z"/><path d="m126.753 58.815h-.562l-.442-1.286h-1.633l-.394 1.286h-.461l1.43-4.398h.623zm-1.123-1.698-.681-2.114-.681 2.114z"/><path d="m129.688 54.417h.457v2.873c0 .576-.141.989-.424 1.24-.282.25-.652.375-1.109.375-.51 0-.887-.129-1.132-.387s-.367-.667-.367-1.229v-2.873h.551v2.873c0 .342.04.583.119.723.08.14.2.243.361.31s.33.1.506.1c.34 0 .598-.089.773-.268.176-.178.265-.466.265-.864z"/><path d="m134.344 58.815h-.578l-.811-1.904h-1.261v1.904h-.516v-4.398h1.734c.471 0 .818.128 1.046.385.227.257.34.537.34.843 0 .234-.063.459-.19.673-.127.216-.336.369-.629.461zm-2.65-2.353h1.15c.304 0 .529-.08.679-.24s.224-.356.224-.588-.078-.413-.236-.542-.357-.193-.598-.193h-1.219z"/><path d="m138.069 58.332v.483h-2.846v-4.398h2.785v.482h-2.233v1.399h1.772v.447h-1.772v1.586h2.294z"/><path d="m87.409 42.69.503.113c-.241.971-.784 1.457-1.631 1.457-.556 0-.993-.225-1.31-.674s-.475-1.001-.475-1.657c0-.677.166-1.221.496-1.632.331-.411.775-.616 1.331-.616.825 0 1.354.472 1.589 1.415l-.519.103c-.189-.701-.546-1.051-1.073-1.051-.389 0-.69.163-.904.488s-.32.783-.32 1.371c0 .54.109.972.329 1.297.219.325.509.488.87.488.559 0 .931-.367 1.114-1.102z"/><path d="m91.558 44.169h-.563l-.442-1.286h-1.633l-.394 1.286h-.46l1.429-4.399h.624zm-1.123-1.698-.682-2.114-.68 2.114z"/><path d="m92.13 44.169v-4.399h1.476c.621 0 1.104.211 1.45.635.346.423.519.941.519 1.553 0 .621-.168 1.145-.506 1.571s-.765.64-1.283.64zm.551-.467h.893c.473 0 .832-.163 1.077-.49s.367-.757.367-1.292c0-.434-.117-.824-.35-1.17s-.598-.519-1.094-.519h-.893z"/><path d="m99.246 43.686v.483h-2.846v-4.399h2.784v.483h-2.233v1.398h1.772v.448h-1.772v1.585h2.295z"/><path d="m103.255 44.169h-.535l-2.275-3.835.007.29c.006.11.009.202.009.277v3.268h-.444v-4.399h.689l2.127 3.585-.006-.306c-.004-.12-.006-.227-.006-.319v-2.96h.435v4.399z"/><path d="m107.199 43.686v.483h-2.845v-4.399h2.785v.483h-2.234v1.398h1.773v.448h-1.773v1.585h2.294z"/><path d="m109.297 44.169h-.551v-3.916h-1.261v-.483h3.075v.483h-1.264v3.916z"/><path d="m124.353 43.166h-.562l-.442-1.286h-1.633l-.394 1.286h-.461l1.43-4.399h.623zm-1.124-1.698-.681-2.114-.681 2.114z"/><path d="m128.164 43.166h-.535l-2.275-3.835.007.29c.006.11.01.202.01.277v3.268h-.445v-4.399h.689l2.127 3.585-.006-.306c-.005-.12-.007-.227-.007-.319v-2.96h.436v4.399z"/><path d="m128.779 42.002.497-.113c.199.6.632.899 1.298.899.349 0 .61-.074.787-.222.176-.147.264-.345.264-.593 0-.188-.067-.338-.201-.453s-.289-.193-.466-.236l-.88-.217c-.228-.058-.414-.128-.559-.211-.146-.083-.269-.21-.369-.382-.102-.172-.151-.369-.151-.591 0-.368.139-.661.415-.879.277-.218.633-.328 1.067-.328.799 0 1.324.362 1.575 1.086l-.499.148c-.059-.258-.194-.453-.409-.585s-.444-.198-.687-.198c-.241 0-.455.064-.643.191s-.282.308-.282.541c0 .326.238.546.715.661l.822.192c.752.181 1.128.586 1.128 1.215 0 .38-.142.697-.424.949s-.681.379-1.194.379c-.91.001-1.512-.417-1.804-1.253z"/><path d="m134.539 43.256c-.565 0-1.006-.22-1.321-.66-.316-.439-.475-.979-.475-1.617 0-.667.166-1.217.497-1.651.33-.434.769-.651 1.314-.651.544 0 .979.213 1.309.64s.493.965.493 1.614c0 .624-.16 1.167-.479 1.63-.318.463-.765.695-1.338.695zm.013-.448c.385 0 .686-.175.902-.525s.325-.802.325-1.355c0-.567-.112-1.009-.337-1.326-.225-.316-.522-.474-.895-.474-.376 0-.674.171-.896.513s-.332.789-.332 1.341c0 .54.112.979.335 1.318.225.339.524.508.898.508z"/><path d="m139.691 38.767h.457v2.874c0 .576-.141.989-.424 1.24-.282.25-.652.376-1.109.376-.51 0-.887-.129-1.132-.387s-.367-.667-.367-1.229v-2.874h.551v2.874c0 .342.04.583.119.723.08.14.2.243.361.31s.33.1.506.1c.34 0 .598-.089.773-.268.176-.179.265-.467.265-.865z"/><path d="m141.735 43.166h-.552v-4.399h.552z"/><path d="m142.35 42.002.497-.113c.199.6.632.899 1.298.899.349 0 .61-.074.787-.222.176-.147.264-.345.264-.593 0-.188-.067-.338-.201-.453s-.289-.193-.466-.236l-.88-.217c-.228-.058-.414-.128-.559-.211-.146-.083-.269-.21-.369-.382-.102-.172-.151-.369-.151-.591 0-.368.139-.661.415-.879.277-.218.633-.328 1.067-.328.799 0 1.324.362 1.575 1.086l-.499.148c-.059-.258-.194-.453-.409-.585s-.444-.198-.687-.198c-.241 0-.455.064-.643.191s-.282.308-.282.541c0 .326.238.546.715.661l.822.192c.752.181 1.128.586 1.128 1.215 0 .38-.142.697-.424.949s-.681.379-1.194.379c-.911.001-1.512-.417-1.804-1.253z"/><path d="m161.488 47.58v.483h-2.598v-4.399h.564v3.916z"/><path d="m165.086 48.063h-.562l-.442-1.286h-1.633l-.394 1.286h-.461l1.43-4.399h.623zm-1.123-1.698-.681-2.114-.681 2.114z"/><path d="m168.637 48.063h-.551v-3.916h-1.261v-.483h3.075v.483h-1.264v3.916z"/><path d="m171.839 48.154c-.565 0-1.006-.22-1.321-.66-.316-.439-.475-.979-.475-1.617 0-.667.166-1.217.497-1.651.33-.434.769-.651 1.314-.651.544 0 .979.213 1.309.64s.493.965.493 1.614c0 .624-.16 1.167-.479 1.63s-.765.695-1.338.695zm.013-.448c.385 0 .686-.175.902-.525s.325-.802.325-1.355c0-.567-.112-1.009-.337-1.326-.225-.316-.522-.474-.895-.474-.376 0-.674.171-.896.513s-.332.789-.332 1.341c0 .54.112.979.335 1.318.225.339.524.508.898.508z"/><path d="m176.991 43.665h.457v2.874c0 .576-.141.989-.424 1.24-.282.25-.652.376-1.109.376-.51 0-.887-.129-1.132-.387s-.367-.667-.367-1.229v-2.874h.551v2.874c0 .342.04.583.119.723.08.14.2.243.361.31s.33.1.506.1c.34 0 .598-.089.773-.268.176-.179.265-.467.265-.865z"/><path d="m181.648 48.063h-.578l-.811-1.905h-1.261v1.905h-.516v-4.399h1.734c.471 0 .818.128 1.046.385.227.257.34.538.34.843 0 .234-.063.458-.19.673s-.336.369-.629.461zm-2.649-2.352h1.15c.304 0 .529-.08.679-.24.149-.16.224-.356.224-.588s-.078-.413-.236-.542-.357-.193-.598-.193h-1.219z"/><path d="m157.333 54.664v-4.399h1.477c.62 0 1.104.211 1.45.635.346.423.519.941.519 1.553 0 .621-.169 1.145-.506 1.571-.338.427-.765.64-1.283.64zm.552-.467h.893c.473 0 .831-.164 1.076-.49s.367-.758.367-1.292c0-.435-.116-.824-.35-1.171-.233-.345-.598-.518-1.094-.518h-.893v3.471z"/><path d="m162.21 50.265v.654l-.436.77h-.226l.319-.77h-.319v-.654z"/><path d="m166.216 54.664h-.562l-.442-1.286h-1.633l-.394 1.286h-.461l1.43-4.399h.623zm-1.123-1.699-.681-2.114-.681 2.114z"/><path d="m167.34 54.664h-.552v-4.399h.552z"/><path d="m171.697 52.447v2.278h-.337l-.151-.552c-.271.387-.674.58-1.21.58-.58 0-1.031-.218-1.354-.654s-.484-.967-.484-1.59c0-.666.171-1.223.513-1.667s.806-.667 1.393-.667c.81 0 1.338.425 1.585 1.276l-.521.125c-.075-.326-.216-.563-.422-.711-.207-.148-.433-.223-.678-.223-.434 0-.754.175-.96.526s-.31.79-.31 1.319c0 .569.116 1.016.347 1.337s.545.482.942.482c.31 0 .568-.104.775-.309.207-.206.311-.489.311-.852 0-.066-.002-.146-.006-.238h-1.09v-.461h1.657z"/><path d="m175.216 50.265h.457v2.874c0 .576-.141.989-.424 1.24-.282.25-.652.375-1.109.375-.51 0-.887-.129-1.132-.387s-.367-.667-.367-1.229v-2.874h.551v2.874c0 .342.04.583.119.723.08.14.2.243.361.31s.33.1.506.1c.34 0 .598-.089.773-.268.176-.178.265-.466.265-.864z"/><path d="m179.554 54.18v.483h-2.846v-4.399h2.785v.483h-2.233v1.399h1.772v.447h-1.772v1.586h2.294z"/><path d="m179.84 53.5.497-.113c.199.6.632.899 1.298.899.349 0 .61-.074.787-.222.176-.147.264-.346.264-.594 0-.188-.067-.338-.201-.452s-.289-.193-.466-.236l-.88-.217c-.228-.059-.414-.129-.559-.212-.146-.082-.269-.21-.369-.382-.102-.172-.151-.369-.151-.591 0-.368.139-.661.415-.879.277-.218.633-.328 1.067-.328.799 0 1.324.362 1.575 1.086l-.499.148c-.059-.258-.194-.453-.409-.585s-.444-.198-.687-.198c-.241 0-.455.064-.643.191s-.282.308-.282.541c0 .326.238.547.715.661l.822.192c.752.181 1.128.586 1.128 1.216 0 .38-.142.696-.424.949-.282.252-.681.378-1.194.378-.911.001-1.512-.416-1.804-1.252z"/><path d="m169.672 65.849v.483h-2.598v-4.398h.564v3.915z"/><path d="m173.27 66.333h-.562l-.442-1.286h-1.633l-.394 1.286h-.461l1.43-4.398h.623zm-1.124-1.699-.681-2.114-.681 2.114z"/><path d="m175.492 66.333v-4.398h1.74c.438 0 .764.106.976.321.211.215.317.464.317.747 0 .498-.261.829-.78.992.31.079.539.222.689.426s.226.436.226.693c0 .346-.116.636-.35.869s-.593.35-1.078.35zm.532-2.514h.957c.397 0 .663-.076.796-.228s.2-.329.2-.533c0-.202-.072-.365-.215-.489-.143-.125-.356-.188-.64-.188h-1.099v1.438zm0 2.03h1.18c.287 0 .51-.069.667-.21.156-.139.235-.32.235-.544 0-.157-.036-.303-.106-.437-.071-.135-.171-.238-.3-.312s-.321-.109-.577-.109h-1.099z"/><path d="m182.444 66.333h-.562l-.442-1.286h-1.633l-.394 1.286h-.461l1.43-4.398h.623zm-1.123-1.699-.681-2.114-.681 2.114z"/><path d="m182.533 65.169.497-.113c.199.6.632.899 1.298.899.349 0 .61-.074.787-.222.176-.147.264-.346.264-.594 0-.188-.067-.338-.201-.452s-.289-.193-.466-.236l-.88-.217c-.228-.059-.414-.129-.559-.212-.146-.082-.269-.21-.369-.382-.102-.172-.151-.369-.151-.591 0-.368.139-.661.415-.879.277-.219.633-.328 1.067-.328.799 0 1.324.362 1.575 1.086l-.499.148c-.059-.258-.194-.453-.409-.585s-.444-.198-.687-.198c-.241 0-.455.063-.643.191-.188.127-.282.308-.282.54 0 .326.238.547.715.661l.822.192c.752.181 1.128.586 1.128 1.216 0 .38-.142.696-.424.949-.282.252-.681.378-1.194.378-.91.002-1.512-.415-1.804-1.251z"/><path d="m187.971 66.333h-.551v-3.916h-1.261v-.482h3.075v.482h-1.264v3.916z"/><path d="m190.397 66.333h-.552v-4.398h.552z"/><path d="m191.495 66.333v-4.398h1.477c.62 0 1.104.211 1.45.635.346.423.519.94.519 1.553 0 .621-.169 1.145-.506 1.571-.338.427-.765.64-1.283.64h-1.657zm.552-.467h.893c.473 0 .831-.164 1.076-.49s.367-.758.367-1.292c0-.435-.116-.824-.35-1.17s-.598-.52-1.094-.52h-.893v3.472z"/><path d="m197.284 66.422c-.565 0-1.006-.22-1.321-.659-.316-.439-.475-.979-.475-1.617 0-.667.166-1.217.497-1.651.33-.435.769-.651 1.314-.651.544 0 .979.214 1.309.641s.493.965.493 1.613c0 .624-.16 1.167-.479 1.631-.318.462-.765.693-1.338.693zm.013-.447c.385 0 .686-.176.902-.526s.325-.802.325-1.354c0-.567-.112-1.01-.337-1.325-.225-.316-.522-.475-.895-.475-.376 0-.674.171-.896.513s-.332.789-.332 1.342c0 .54.112.979.335 1.317.225.338.524.508.898.508z"/><path d="m203.169 66.333h-.535l-2.275-3.835.007.29c.006.109.01.202.01.277v3.268h-.445v-4.398h.689l2.127 3.584-.006-.306c-.005-.12-.007-.227-.007-.318v-2.96h.436v4.398z"/><path d="m207.506 66.333h-.535l-2.275-3.835.007.29c.006.109.01.202.01.277v3.268h-.445v-4.398h.689l2.127 3.584-.006-.306c-.005-.12-.007-.227-.007-.318v-2.96h.436v4.398z"/><path d="m211.45 65.849v.483h-2.846v-4.398h2.785v.482h-2.233v1.399h1.772v.447h-1.772v1.586h2.294z"/><path d="m113.922 20.185.502.113c-.24.971-.784 1.457-1.63 1.457-.557 0-.993-.225-1.311-.674-.316-.449-.476-1.001-.476-1.657 0-.677.166-1.221.497-1.632.33-.411.774-.616 1.331-.616.824 0 1.354.472 1.588 1.415l-.519.103c-.188-.701-.547-1.051-1.073-1.051-.389 0-.689.163-.903.488s-.321.783-.321 1.371c0 .54.109.972.329 1.297.219.325.509.488.87.488.561 0 .933-.368 1.116-1.102z"/><path d="m117.615 17.265h.457v2.874c0 .576-.141.989-.424 1.24-.282.25-.652.376-1.109.376-.51 0-.887-.129-1.132-.387s-.367-.667-.367-1.229v-2.874h.551v2.874c0 .342.04.583.119.723.08.14.2.243.361.31s.33.1.506.1c.34 0 .598-.089.773-.268.176-.179.265-.467.265-.865z"/><path d="m121.743 20.185.502.113c-.24.971-.784 1.457-1.63 1.457-.557 0-.993-.225-1.311-.674-.316-.449-.476-1.001-.476-1.657 0-.677.166-1.221.497-1.632.33-.411.774-.616 1.331-.616.824 0 1.354.472 1.588 1.415l-.519.103c-.188-.701-.547-1.051-1.073-1.051-.389 0-.689.163-.903.488s-.321.783-.321 1.371c0 .54.109.972.329 1.297.219.325.509.488.87.488.561 0 .934-.368 1.116-1.102z"/><path d="m125.437 17.265h.457v2.874c0 .576-.141.989-.424 1.24-.282.25-.652.376-1.109.376-.51 0-.887-.129-1.132-.387s-.367-.667-.367-1.229v-2.874h.551v2.874c0 .342.04.583.119.723.08.14.2.243.361.31s.33.1.506.1c.34 0 .598-.089.773-.268.176-.179.265-.467.265-.865z"/><path d="m130.093 21.664h-.578l-.811-1.905h-1.261v1.905h-.516v-4.399h1.734c.471 0 .818.128 1.046.385.227.257.34.538.34.843 0 .234-.063.458-.19.673s-.336.369-.629.461zm-2.65-2.353h1.15c.304 0 .529-.08.679-.24.149-.16.224-.356.224-.588s-.078-.413-.236-.542-.357-.193-.598-.193h-1.219z"/><path d="m132.412 21.754c-.565 0-1.006-.22-1.321-.66-.316-.439-.475-.979-.475-1.617 0-.667.166-1.217.497-1.651.33-.434.769-.651 1.314-.651.544 0 .979.213 1.309.64s.493.965.493 1.614c0 .624-.16 1.167-.479 1.63-.318.463-.765.695-1.338.695zm.013-.448c.385 0 .686-.175.902-.525s.325-.802.325-1.355c0-.567-.112-1.009-.337-1.326-.225-.316-.522-.474-.895-.474-.376 0-.674.171-.896.513s-.332.789-.332 1.341c0 .54.112.979.335 1.318.225.339.524.508.898.508z"/><path d="m138.296 21.664h-.535l-2.275-3.835.007.29c.006.11.01.202.01.277v3.268h-.445v-4.399h.689l2.127 3.585-.006-.306c-.005-.12-.007-.227-.007-.319v-2.96h.436v4.399z"/><path d="m96.724 9.899-1.482 4.399h-.532l-1.482-4.399h.577l1.226 3.629 1.214-3.629z"/><path d="m100.022 14.298h-.563l-.442-1.286h-1.632l-.394 1.286h-.46l1.429-4.399h.624zm-1.122-1.698-.682-2.114-.68 2.114z"/><path d="m102.957 9.899h.458v2.874c0 .576-.142.989-.424 1.24-.283.25-.653.376-1.11.376-.509 0-.886-.129-1.131-.387s-.367-.667-.367-1.229v-2.874h.551v2.874c0 .342.04.583.119.723s.2.243.361.31.33.1.506.1c.339 0 .597-.089.773-.268s.264-.467.264-.865z"/><path d="m107.707 12.081v2.278h-.336l-.152-.551c-.271.387-.674.58-1.209.58-.581 0-1.032-.218-1.354-.655-.323-.437-.484-.966-.484-1.59 0-.667.171-1.222.512-1.667.342-.445.806-.667 1.392-.667.811 0 1.338.425 1.586 1.276l-.521.125c-.076-.327-.217-.564-.423-.712s-.432-.223-.677-.223c-.434 0-.754.175-.96.526s-.309.79-.309 1.319c0 .57.115 1.016.346 1.337s.545.482.943.482c.309 0 .567-.103.775-.308.207-.206.311-.49.311-.851 0-.067-.002-.146-.006-.239h-1.09v-.461h1.656z"/><path d="m109.271 14.298h-.552v-4.399h.552z"/><path d="m113.608 14.298h-.535l-2.275-3.835.007.29c.006.11.01.202.01.277v3.268h-.445v-4.399h.689l2.127 3.585-.006-.306c-.005-.12-.007-.227-.007-.319v-2.96h.436v4.399z"/><path d="m117.552 13.814v.483h-2.846v-4.398h2.785v.483h-2.233v1.398h1.772v.448h-1.772v1.585h2.294z"/><path d="m117.839 13.134.497-.113c.199.6.632.899 1.298.899.349 0 .61-.074.787-.222.176-.147.264-.345.264-.593 0-.188-.067-.338-.201-.453s-.289-.193-.466-.236l-.88-.217c-.228-.058-.414-.128-.559-.211-.146-.083-.269-.21-.369-.382-.102-.172-.151-.369-.151-.591 0-.368.139-.661.415-.879.277-.218.633-.328 1.067-.328.799 0 1.324.362 1.575 1.086l-.499.148c-.059-.258-.194-.453-.409-.585s-.444-.198-.687-.198c-.241 0-.455.064-.643.191s-.282.308-.282.541c0 .326.238.546.715.661l.822.192c.752.181 1.128.586 1.128 1.215 0 .38-.142.697-.424.949s-.681.379-1.194.379c-.911.001-1.512-.417-1.804-1.253z"/><path d="m138.13 6.034.502.113c-.24.971-.784 1.457-1.63 1.457-.557 0-.993-.225-1.311-.674-.316-.449-.476-1.001-.476-1.657 0-.677.166-1.221.497-1.632.33-.411.774-.616 1.331-.616.824 0 1.354.472 1.588 1.415l-.519.103c-.188-.701-.547-1.051-1.073-1.051-.389 0-.689.163-.903.488s-.321.783-.321 1.371c0 .54.109.972.329 1.297.219.325.509.488.87.488.561 0 .933-.367 1.116-1.102z"/><path d="m142.278 7.513h-.562l-.442-1.286h-1.633l-.394 1.286h-.461l1.43-4.399h.623zm-1.123-1.698-.681-2.114-.681 2.114z"/><path d="m142.851 7.513v-4.399h1.74c.438 0 .764.107.976.322.211.215.317.464.317.747 0 .499-.261.829-.78.992.31.08.539.221.689.426.15.204.226.435.226.693 0 .346-.116.636-.35.869-.233.233-.593.35-1.078.35zm.532-2.513h.957c.397 0 .663-.076.796-.227.133-.152.2-.33.2-.534 0-.202-.072-.365-.215-.49s-.356-.187-.64-.187h-1.099v1.438zm0 2.03h1.18c.287 0 .51-.07.667-.209.156-.14.235-.321.235-.544 0-.157-.036-.303-.106-.437-.071-.134-.171-.238-.3-.311s-.321-.109-.577-.109h-1.099z"/><path d="m150.005 7.513h-.578l-.811-1.905h-1.261v1.905h-.516v-4.399h1.734c.471 0 .818.128 1.046.385.227.257.34.538.34.843 0 .234-.063.458-.19.673s-.336.369-.629.461zm-2.65-2.352h1.15c.304 0 .529-.08.679-.24.149-.16.224-.356.224-.588s-.078-.413-.236-.542-.357-.193-.598-.193h-1.219z"/><path d="m151.437 7.513h-.552v-4.399h.552z"/><path d="m155.38 7.03v.483h-2.846v-4.399h2.785v.483h-2.233v1.398h1.772v.448h-1.772v1.587zm-2.353-4.925.201-.387 1.271.735-.135.261z"/><path d="m159.315 7.513h-.578l-.811-1.905h-1.261v1.905h-.516v-4.399h1.734c.471 0 .818.128 1.046.385.227.257.34.538.34.843 0 .234-.063.458-.19.673s-.336.369-.629.461zm-2.649-2.352h1.15c.304 0 .529-.08.679-.24.149-.16.224-.356.224-.588s-.078-.413-.236-.542-.357-.193-.598-.193h-1.219z"/><path d="m163.04 7.03v.483h-2.846v-4.399h2.785v.483h-2.233v1.398h1.772v.448h-1.772v1.587z"/><path d="m163.327 6.35.497-.113c.199.6.632.899 1.298.899.349 0 .61-.074.787-.222.176-.147.264-.345.264-.593 0-.188-.067-.338-.201-.453s-.289-.193-.466-.236l-.88-.217c-.228-.058-.414-.128-.559-.211-.146-.083-.269-.21-.369-.382-.102-.172-.151-.369-.151-.591 0-.368.139-.661.415-.879.277-.218.633-.328 1.067-.328.799 0 1.324.362 1.575 1.086l-.499.148c-.059-.258-.194-.453-.409-.585s-.444-.198-.687-.198c-.241 0-.455.064-.643.191s-.282.308-.282.541c0 .326.238.546.715.661l.822.192c.752.181 1.128.586 1.128 1.215 0 .38-.142.697-.424.949s-.681.379-1.194.379c-.91.001-1.512-.417-1.804-1.253z"/><path d="m138.16 14.113v-4.399h1.477c.62 0 1.104.211 1.45.635.346.423.519.941.519 1.553 0 .621-.169 1.145-.506 1.571-.338.426-.765.64-1.283.64zm.552-.467h.893c.473 0 .831-.163 1.076-.49s.367-.757.367-1.292c0-.434-.116-.824-.35-1.17-.233-.346-.598-.519-1.094-.519h-.893v3.471z"/><path d="m143.036 9.714v.654l-.436.77h-.226l.319-.77h-.319v-.654z"/><path d="m147.043 14.113h-.562l-.442-1.286h-1.633l-.394 1.286h-.461l1.43-4.399h.623zm-1.123-1.698-.681-2.114-.681 2.114z"/><path d="m148.17 14.113h-.552v-4.399h.552z"/><path d="m152.527 11.896v2.278h-.337l-.151-.551c-.271.387-.674.58-1.21.58-.58 0-1.031-.218-1.354-.655s-.484-.966-.484-1.59c0-.667.171-1.222.513-1.667s.806-.667 1.393-.667c.81 0 1.338.425 1.585 1.276l-.521.125c-.075-.327-.216-.564-.422-.712-.207-.148-.433-.223-.678-.223-.434 0-.754.175-.96.526s-.31.79-.31 1.319c0 .57.116 1.016.347 1.337s.545.482.942.482c.31 0 .568-.103.775-.308.207-.206.311-.49.311-.851 0-.067-.002-.146-.006-.239h-1.09v-.461h1.657z"/><path d="m156.046 9.714h.457v2.874c0 .576-.141.989-.424 1.24-.282.25-.652.376-1.109.376-.51 0-.887-.129-1.132-.387s-.367-.667-.367-1.229v-2.874h.551v2.874c0 .342.04.583.119.723.08.14.2.243.361.31s.33.1.506.1c.34 0 .598-.089.773-.268.176-.179.265-.467.265-.865z"/><path d="m160.383 13.629v.483h-2.846v-4.398h2.785v.483h-2.233v1.398h1.772v.448h-1.772v1.585h2.294z"/><path d="m160.67 12.949.497-.113c.199.6.632.899 1.298.899.349 0 .61-.074.787-.222.176-.147.264-.345.264-.593 0-.188-.067-.338-.201-.453s-.289-.193-.466-.236l-.88-.217c-.228-.058-.414-.128-.559-.211-.146-.083-.269-.21-.369-.382-.102-.172-.151-.369-.151-.591 0-.368.139-.661.415-.879.277-.218.633-.328 1.067-.328.799 0 1.324.362 1.575 1.086l-.499.148c-.059-.258-.194-.453-.409-.585s-.444-.198-.687-.198c-.241 0-.455.064-.643.191s-.282.308-.282.541c0 .326.238.546.715.661l.822.192c.752.181 1.128.586 1.128 1.215 0 .38-.142.697-.424.949s-.681.379-1.194.379c-.911.001-1.512-.417-1.804-1.253z"/><path d="m152.85 23.067.497-.113c.199.6.632.899 1.298.899.349 0 .61-.074.787-.222.176-.147.264-.345.264-.593 0-.188-.067-.338-.201-.453s-.289-.193-.466-.236l-.88-.217c-.228-.058-.414-.128-.559-.211-.146-.083-.269-.21-.369-.382-.102-.172-.151-.369-.151-.591 0-.368.139-.661.415-.879.277-.218.633-.328 1.067-.328.799 0 1.324.362 1.575 1.086l-.499.148c-.059-.258-.194-.453-.409-.585s-.444-.198-.687-.198c-.241 0-.455.064-.643.191s-.282.308-.282.541c0 .326.238.546.715.661l.822.192c.752.181 1.128.586 1.128 1.215 0 .38-.142.697-.424.949s-.681.379-1.194.379c-.911.001-1.512-.417-1.804-1.253z"/><path d="m158.287 24.231h-.551v-3.916h-1.261v-.483h3.075v.483h-1.264v3.916z"/><path d="m166.06 24.231h-.535v-3.841l-1.428 3.841h-.374l-1.443-3.841v3.841h-.468v-4.399h.816l1.328 3.518 1.298-3.518h.806z"/><path d="m170.121 24.231h-.562l-.442-1.286h-1.633l-.394 1.286h-.461l1.43-4.399h.623zm-1.123-1.698-.681-2.114-.681 2.114z"/><path d="m173.858 24.231h-.578l-.811-1.905h-1.261v1.905h-.516v-4.399h1.734c.471 0 .818.128 1.046.385.227.257.34.538.34.843 0 .234-.063.458-.19.673s-.336.369-.629.461zm-2.649-2.353h1.15c.304 0 .529-.08.679-.24.149-.16.224-.356.224-.588s-.078-.413-.236-.542-.357-.193-.598-.193h-1.219z"/><path d="m176.02 24.231h-.551v-3.916h-1.261v-.483h3.075v.483h-1.264v3.916z"/><path d="m178.447 24.231h-.552v-4.399h.552z"/><path d="m182.784 24.231h-.535l-2.275-3.835.007.29c.006.11.01.202.01.277v3.268h-.445v-4.399h.689l2.127 3.585-.006-.306c-.005-.12-.007-.227-.007-.319v-2.96h.436v4.399z"/><path d="m146.073 30.831v-4.399h1.477c.62 0 1.104.211 1.45.635.346.423.519.941.519 1.553 0 .621-.169 1.145-.506 1.571-.338.426-.765.64-1.283.64zm.552-.468h.893c.473 0 .831-.163 1.076-.49s.367-.757.367-1.292c0-.434-.116-.824-.35-1.17-.233-.346-.598-.519-1.094-.519h-.893v3.471z"/><path d="m153.189 30.347v.483h-2.846v-4.399h2.785v.483h-2.233v1.398h1.772v.448h-1.772v1.585h2.294z"/><path d="m158.207 30.347v.483h-2.598v-4.399h.564v3.916z"/><path d="m161.805 30.831h-.562l-.442-1.286h-1.633l-.394 1.286h-.461l1.43-4.399h.623zm-1.123-1.699-.681-2.114-.681 2.114z"/><path d="m164.026 30.831v-4.399h1.74c.438 0 .764.107.976.322.211.215.317.464.317.747 0 .499-.261.829-.78.992.31.08.539.221.689.426.15.204.226.435.226.693 0 .346-.116.636-.35.869-.233.233-.593.35-1.078.35zm.533-2.514h.957c.397 0 .663-.076.796-.227.133-.152.2-.33.2-.534 0-.202-.072-.365-.215-.49s-.356-.187-.64-.187h-1.099v1.438zm0 2.03h1.18c.287 0 .51-.07.667-.209.156-.14.235-.321.235-.544 0-.157-.036-.303-.106-.437-.071-.134-.171-.238-.3-.311s-.321-.109-.577-.109h-1.099z"/><path d="m171.182 30.831h-.578l-.811-1.905h-1.261v1.905h-.516v-4.399h1.734c.471 0 .818.128 1.046.385.227.257.34.538.34.843 0 .234-.063.458-.19.673s-.336.369-.629.461zm-2.65-2.353h1.15c.304 0 .529-.08.679-.24.149-.16.224-.356.224-.588s-.078-.413-.236-.542-.357-.193-.598-.193h-1.219z"/><path d="m175.023 30.831h-.562l-.442-1.286h-1.633l-.394 1.286h-.461l1.43-4.399h.623zm-1.123-1.699-.681-2.114-.681 2.114z"/><path d="m175.112 29.667.497-.113c.199.6.632.899 1.298.899.349 0 .61-.074.787-.222.176-.147.264-.345.264-.593 0-.188-.067-.338-.201-.453s-.289-.193-.466-.236l-.88-.217c-.228-.058-.414-.128-.559-.211-.146-.083-.269-.21-.369-.382-.102-.172-.151-.369-.151-.591 0-.368.139-.661.415-.879.277-.218.633-.328 1.067-.328.799 0 1.324.362 1.575 1.086l-.499.148c-.059-.258-.194-.453-.409-.585s-.444-.198-.687-.198c-.241 0-.455.064-.643.191s-.282.308-.282.541c0 .326.238.546.715.661l.822.192c.752.181 1.128.586 1.128 1.215 0 .38-.142.697-.424.949s-.681.379-1.194.379c-.91.001-1.512-.417-1.804-1.253z"/><path d="m180.888 30.921c-.565 0-1.008-.216-1.329-.646-.321-.431-.482-.968-.482-1.611 0-.684.167-1.242.5-1.674s.77-.648 1.309-.648c.526 0 .959.207 1.297.619.339.413.508.958.508 1.635 0 .563-.127 1.057-.381 1.48-.253.424-.577.687-.973.791l-.004.061c0 .323.196.484.587.484.187 0 .355-.014.506-.042v.441c-.146.045-.298.068-.454.068-.338 0-.597-.071-.778-.213-.183-.144-.285-.392-.306-.745zm-.003-.448c.385 0 .686-.175.902-.525s.325-.802.325-1.355c0-.567-.112-1.009-.337-1.326-.225-.316-.522-.474-.895-.474-.376 0-.674.171-.896.513s-.332.789-.332 1.341c0 .54.112.979.335 1.318.225.339.524.508.898.508z"/><path d="m186.025 26.432h.457v2.874c0 .576-.141.989-.424 1.24-.282.25-.652.376-1.109.376-.51 0-.887-.129-1.132-.387s-.367-.667-.367-1.229v-2.874h.551v2.874c0 .342.04.583.119.723.08.14.2.243.361.31s.33.1.506.1c.34 0 .598-.089.773-.268.176-.179.265-.467.265-.865z"/><path d="m190.362 30.347v.483h-2.846v-4.399h2.785v.483h-2.233v1.398h1.772v.448h-1.772v1.585h2.294z"/></g></svg>