<?xml version="1.0" encoding="utf-8"?>
<!-- Generator: Adobe Illustrator 23.0.2, SVG Export Plug-In . SVG Version: 6.00 Build 0)  -->
<svg version="1.1" id="Calque_1" xmlns="http://www.w3.org/2000/svg" xmlns:xlink="http://www.w3.org/1999/xlink" x="0px" y="0px"
	 viewBox="0 0 534.33 520.33" style="enable-background:new 0 0 534.33 520.33;" xml:space="preserve">
<style type="text/css">
	.st0{fill:#FFFFFF;}
	.st1{fill:#896B25;stroke:#896B25;stroke-miterlimit:10;}
	.st2{fill:none;stroke:#896B25;stroke-linecap:round;stroke-linejoin:round;}
</style>
<path class="st0" d="M26.08,437.31c0-7.55,4.99-17.31,18.24-17.31c10.99,0,17.84,6.4,17.84,16.51c0,10.12-7.07,18.1-18.28,18.1
	C31.2,454.62,26.08,445.13,26.08,437.31 M55.98,438.15c0-9.89-5.7-16.03-12.94-16.03c-5.08,0-10.86,2.83-10.86,13.83
	c0,9.18,5.08,16.47,13.56,16.47C48.82,452.42,55.98,450.91,55.98,438.15"/>
<path class="st0" d="M74.37,443.24c0,3.62,0.04,6.27,0.22,7.86c0.13,1.09,0.4,1.81,1.55,1.98c0.53,0.09,1.37,0.14,1.9,0.14
	c0.49,0,0.67,0.22,0.67,0.39c0,0.26-0.27,0.4-0.84,0.4c-2.47,0-5.21-0.13-6.23-0.13c-1.01,0-3.49,0.13-4.95,0.13
	c-0.53,0-0.8-0.09-0.8-0.4c0-0.18,0.13-0.39,0.58-0.39c0.57,0,1.01-0.05,1.37-0.14c0.79-0.17,1.02-0.89,1.15-1.98
	c0.18-1.59,0.18-4.38,0.18-8v-6.62c0-5.69,0-6.76-0.05-7.95c-0.08-1.28-0.44-1.73-1.68-2.04c-0.31-0.08-0.97-0.13-1.55-0.13
	c-0.35,0-0.66-0.13-0.66-0.39c0-0.27,0.31-0.36,0.93-0.36c1.98,0,4.46,0.09,5.56,0.09c1.5,0,10.11,0.04,11.04,0
	c0.7-0.04,1.19-0.09,1.59-0.18c0.22-0.05,0.39-0.22,0.61-0.22c0.13,0,0.27,0.17,0.27,0.36c0,0.26-0.18,0.7-0.31,1.67
	c-0.04,0.4-0.13,2.61-0.18,3.05c-0.04,0.31-0.13,0.75-0.39,0.75c-0.27,0-0.49-0.18-0.49-0.62c0-0.31,0.04-0.88-0.23-1.42
	c-0.26-0.52-1.01-1.1-2.47-1.14l-6.45-0.13c-0.22,0-0.35,0.09-0.35,0.54v9.09c0,0.22,0.04,0.35,0.26,0.35l5.43-0.04
	c0.66,0,1.19,0,1.77-0.04c0.71-0.05,1.28-0.18,1.63-0.67c0.22-0.22,0.31-0.4,0.53-0.4c0.13,0,0.22,0.13,0.22,0.35
	c0,0.23-0.18,1.24-0.31,2.43c-0.09,0.75-0.13,2.48-0.13,2.74c0,0.31-0.04,0.84-0.44,0.84c-0.22,0-0.36-0.26-0.36-0.53
	c0-0.26-0.08-0.7-0.27-1.15c-0.17-0.53-0.66-1.28-1.85-1.37c-0.97-0.1-5.56-0.13-6.23-0.13c-0.18,0-0.26,0.04-0.26,0.31V443.24z"/>
<path class="st0" d="M98.52,443.24c0,3.62,0.04,6.27,0.22,7.86c0.13,1.09,0.4,1.81,1.55,1.98c0.53,0.09,1.37,0.14,1.9,0.14
	c0.49,0,0.67,0.22,0.67,0.39c0,0.26-0.27,0.4-0.84,0.4c-2.47,0-5.21-0.13-6.23-0.13c-1.01,0-3.49,0.13-4.95,0.13
	c-0.53,0-0.8-0.09-0.8-0.4c0-0.18,0.13-0.39,0.58-0.39c0.57,0,1.01-0.05,1.37-0.14c0.79-0.17,1.02-0.89,1.15-1.98
	c0.18-1.59,0.18-4.38,0.18-8v-6.62c0-5.69,0-6.76-0.05-7.95c-0.08-1.28-0.44-1.73-1.67-2.04c-0.31-0.08-0.97-0.13-1.55-0.13
	c-0.35,0-0.66-0.13-0.66-0.39c0-0.27,0.31-0.36,0.93-0.36c1.98,0,4.46,0.09,5.56,0.09c1.5,0,10.11,0.04,11.04,0
	c0.7-0.04,1.19-0.09,1.59-0.18c0.22-0.05,0.39-0.22,0.61-0.22c0.13,0,0.27,0.17,0.27,0.36c0,0.26-0.18,0.7-0.31,1.67
	c-0.04,0.4-0.13,2.61-0.18,3.05c-0.04,0.31-0.13,0.75-0.39,0.75c-0.27,0-0.49-0.18-0.49-0.62c0-0.31,0.04-0.88-0.22-1.42
	c-0.26-0.52-1.01-1.1-2.47-1.14l-6.45-0.13c-0.22,0-0.35,0.09-0.35,0.54v9.09c0,0.22,0.04,0.35,0.26,0.35l5.43-0.04
	c0.66,0,1.19,0,1.77-0.04c0.71-0.05,1.28-0.18,1.63-0.67c0.22-0.22,0.31-0.4,0.53-0.4c0.13,0,0.22,0.13,0.22,0.35
	c0,0.23-0.18,1.24-0.31,2.43c-0.09,0.75-0.13,2.48-0.13,2.74c0,0.31-0.04,0.84-0.44,0.84c-0.22,0-0.36-0.26-0.36-0.53
	c0-0.26-0.08-0.7-0.27-1.15c-0.17-0.53-0.66-1.28-1.85-1.37c-0.97-0.1-5.56-0.13-6.23-0.13c-0.18,0-0.26,0.04-0.26,0.31V443.24z"/>
<path class="st0" d="M117.44,436.48c0-5.69,0-6.76-0.04-7.95c-0.09-1.28-0.48-1.73-1.32-2c-0.44-0.12-0.93-0.17-1.42-0.17
	c-0.39,0-0.62-0.08-0.62-0.44c0-0.22,0.31-0.31,0.93-0.31c1.46,0,4.11,0.09,5.21,0.09c0.97,0,3.49-0.09,4.99-0.09
	c0.49,0,0.8,0.09,0.8,0.31c0,0.35-0.22,0.44-0.62,0.44c-0.39,0-0.7,0.05-1.15,0.13c-1.06,0.17-1.37,0.71-1.46,2.04
	c-0.08,1.19-0.08,2.25-0.08,7.95v6.62c0,3.62,0,6.63,0.18,8.21c0.13,1.01,0.39,1.59,1.54,1.77c0.53,0.09,1.41,0.14,1.99,0.14
	c0.44,0,0.62,0.22,0.62,0.39c0,0.26-0.31,0.4-0.75,0.4c-2.56,0-5.21-0.13-6.27-0.13c-0.88,0-3.53,0.13-5.08,0.13
	c-0.49,0-0.75-0.13-0.75-0.4c0-0.18,0.13-0.39,0.62-0.39c0.57,0,1.01-0.05,1.37-0.14c0.8-0.17,1.02-0.71,1.15-1.81
	c0.18-1.54,0.18-4.55,0.18-8.17V436.48z"/>
<path class="st0" d="M135.59,450.43c-3.84-3.23-4.86-7.46-4.86-11.08c0-2.56,0.84-6.98,4.55-10.29c2.82-2.47,6.53-3.97,12.32-3.97
	c2.43,0,3.89,0.18,5.65,0.4c1.46,0.22,2.74,0.49,3.89,0.62c0.44,0.04,0.58,0.22,0.58,0.44c0,0.31-0.09,0.75-0.18,2.07
	c-0.09,1.24-0.09,3.31-0.13,4.06c-0.05,0.54-0.18,0.93-0.53,0.93c-0.31,0-0.4-0.31-0.4-0.8c-0.04-1.19-0.53-2.51-1.5-3.48
	c-1.33-1.28-3.93-2.21-7.51-2.21c-3.4,0-5.56,0.62-7.33,2.12c-2.87,2.47-3.58,6.1-3.58,9.77c0,8.92,6.88,13.16,12.1,13.16
	c3.44,0,5.34-0.27,6.88-1.99c0.67-0.75,1.2-1.81,1.33-2.52c0.09-0.57,0.18-0.75,0.49-0.75c0.26,0,0.44,0.35,0.44,0.67
	c0,0.43-0.44,3.71-0.84,4.99c-0.18,0.66-0.35,0.83-1.01,1.1c-1.55,0.62-4.51,0.84-7.03,0.84
	C143.62,454.5,139.12,453.39,135.59,450.43"/>
<path class="st0" d="M166.08,436.48c0-5.69,0-6.76-0.04-7.95c-0.09-1.28-0.44-1.68-1.67-2.04c-0.31-0.08-0.97-0.13-1.55-0.13
	c-0.4,0-0.66-0.13-0.66-0.39c0-0.27,0.31-0.36,0.88-0.36c2.03,0,4.5,0.09,5.61,0.09c1.24,0,9.85,0.04,10.6,0
	c0.7-0.04,1.32-0.18,1.63-0.22c0.22-0.04,0.44-0.17,0.62-0.17c0.22,0,0.26,0.17,0.26,0.36c0,0.26-0.22,0.7-0.31,2.43
	c-0.05,0.4-0.13,2.03-0.22,2.47c-0.04,0.18-0.13,0.62-0.44,0.62c-0.26,0-0.31-0.17-0.31-0.48c0-0.26-0.05-0.93-0.26-1.37
	c-0.31-0.66-0.62-1.2-2.56-1.37c-0.66-0.09-5.3-0.18-6.1-0.18c-0.18,0-0.26,0.13-0.26,0.35v9.28c0,0.21,0.04,0.39,0.26,0.39
	c0.89,0,5.92,0,6.8-0.08c0.93-0.1,1.5-0.18,1.85-0.58c0.31-0.27,0.44-0.49,0.62-0.49c0.18,0,0.31,0.18,0.31,0.4
	c0,0.22-0.09,0.84-0.31,2.74c-0.09,0.75-0.18,2.25-0.18,2.51c0,0.31-0.05,0.84-0.4,0.84c-0.26,0-0.35-0.14-0.35-0.31
	c-0.04-0.4-0.04-0.88-0.13-1.37c-0.22-0.75-0.7-1.32-2.16-1.46c-0.71-0.09-5.12-0.17-6.1-0.17c-0.18,0-0.22,0.17-0.22,0.4v3
	c0,1.28-0.05,4.45,0,5.56c0.08,2.56,1.28,3.14,5.25,3.14c1.02,0,2.65-0.05,3.67-0.49c0.97-0.44,1.41-1.24,1.68-2.78
	c0.09-0.4,0.18-0.57,0.44-0.57c0.31,0,0.35,0.48,0.35,0.88c0,0.84-0.31,3.4-0.53,4.15c-0.27,0.98-0.62,0.98-2.08,0.98
	c-2.91,0-5.25-0.04-7.15-0.13c-1.9-0.04-3.36-0.09-4.5-0.09c-0.44,0-1.28,0.05-2.21,0.05c-0.93,0.04-1.9,0.09-2.69,0.09
	c-0.48,0-0.75-0.13-0.75-0.4c0-0.18,0.13-0.39,0.62-0.39c0.57,0,1.01-0.05,1.37-0.14c0.8-0.17,1.02-0.89,1.15-1.98
	c0.18-1.59,0.18-4.55,0.18-8V436.48z"/>
<path class="st0" d="M204.75,436.48c0-5.69,0-6.76-0.04-7.95c-0.09-1.28-0.44-1.68-1.68-2.03c-0.31-0.08-0.97-0.13-1.55-0.13
	c-0.4,0-0.66-0.13-0.66-0.39c0-0.27,0.31-0.35,0.88-0.35c2.03,0,4.5,0.08,5.61,0.08c1.19,0,3.97-0.08,6.31-0.08
	c4.86,0,11.4,0,15.63,4.28c1.95,1.95,3.67,5.09,3.67,9.54c0,4.73-2.03,8.31-4.24,10.46c-1.76,1.77-5.87,4.42-13.02,4.42
	c-1.41,0-3.09-0.13-4.64-0.22c-1.55-0.13-2.96-0.21-3.93-0.21c-0.44,0-1.28,0.04-2.21,0.04c-0.93,0.04-1.9,0.09-2.7,0.09
	c-0.49,0-0.75-0.13-0.75-0.4c0-0.18,0.13-0.4,0.62-0.4c0.57,0,1.02-0.04,1.37-0.13c0.8-0.18,1.01-0.89,1.15-1.99
	c0.18-1.59,0.18-4.55,0.18-7.99V436.48z M209.96,440.63c0,3.97,0.05,6.84,0.09,7.59c0.04,0.92,0.13,2.25,0.44,2.65
	c0.49,0.71,2.03,1.5,5.08,1.5c3.53,0,6.14-0.61,8.48-2.55c2.52-2.08,3.31-5.43,3.31-9.32c0-4.77-1.9-7.86-3.62-9.36
	c-3.58-3.18-7.82-3.57-10.86-3.57c-0.8,0-2.08,0.08-2.38,0.26c-0.35,0.13-0.49,0.31-0.49,0.75c-0.05,1.29-0.05,4.37-0.05,7.33
	V440.63z"/>
<path class="st0" d="M240.98,436.48c0-5.69,0-6.76-0.04-7.95c-0.09-1.28-0.44-1.68-1.68-2.04c-0.31-0.08-0.97-0.13-1.54-0.13
	c-0.4,0-0.66-0.13-0.66-0.39c0-0.27,0.31-0.36,0.88-0.36c2.03,0,4.5,0.09,5.61,0.09c1.24,0,9.85,0.04,10.6,0
	c0.71-0.04,1.33-0.18,1.64-0.22c0.22-0.04,0.44-0.17,0.62-0.17c0.22,0,0.26,0.17,0.26,0.36c0,0.26-0.22,0.7-0.31,2.43
	c-0.04,0.4-0.13,2.03-0.22,2.47c-0.04,0.18-0.13,0.62-0.44,0.62c-0.26,0-0.31-0.17-0.31-0.48c0-0.26-0.04-0.93-0.26-1.37
	c-0.31-0.66-0.62-1.2-2.56-1.37c-0.66-0.09-5.3-0.18-6.1-0.18c-0.18,0-0.26,0.13-0.26,0.35v9.28c0,0.21,0.05,0.39,0.26,0.39
	c0.88,0,5.92,0,6.8-0.08c0.93-0.1,1.5-0.18,1.86-0.58c0.31-0.27,0.44-0.49,0.62-0.49c0.18,0,0.31,0.18,0.31,0.4
	c0,0.22-0.08,0.84-0.31,2.74c-0.09,0.75-0.18,2.25-0.18,2.51c0,0.31-0.04,0.84-0.39,0.84c-0.27,0-0.35-0.14-0.35-0.31
	c-0.05-0.4-0.05-0.88-0.13-1.37c-0.22-0.75-0.7-1.32-2.16-1.46c-0.71-0.09-5.12-0.17-6.09-0.17c-0.18,0-0.22,0.17-0.22,0.4v3
	c0,1.28-0.05,4.45,0,5.56c0.09,2.56,1.28,3.14,5.25,3.14c1.01,0,2.65-0.05,3.67-0.49c0.97-0.44,1.41-1.24,1.67-2.78
	c0.09-0.4,0.18-0.57,0.44-0.57c0.31,0,0.35,0.48,0.35,0.88c0,0.84-0.31,3.4-0.53,4.15c-0.27,0.98-0.62,0.98-2.08,0.98
	c-2.91,0-5.26-0.04-7.15-0.13c-1.9-0.04-3.35-0.09-4.5-0.09c-0.44,0-1.28,0.05-2.21,0.05c-0.93,0.04-1.9,0.09-2.7,0.09
	c-0.48,0-0.75-0.13-0.75-0.4c0-0.18,0.13-0.39,0.62-0.39c0.57,0,1.02-0.05,1.37-0.14c0.79-0.17,1.01-0.89,1.15-1.98
	c0.18-1.59,0.18-4.55,0.18-8V436.48z"/>
<path class="st0" d="M286.4,423.1l-6.58,0.18c-2.56,0.09-3.62,0.31-4.28,1.28c-0.44,0.66-0.66,1.2-0.75,1.55
	c-0.09,0.35-0.22,0.52-0.49,0.52c-0.31,0-0.4-0.21-0.4-0.7c0-0.71,0.84-4.73,0.93-5.08c0.13-0.57,0.27-0.84,0.53-0.84
	c0.36,0,0.8,0.44,1.9,0.53c1.28,0.13,2.96,0.23,4.41,0.23h17.49c1.41,0,2.38-0.14,3.04-0.23c0.66-0.13,1.02-0.22,1.19-0.22
	c0.31,0,0.35,0.27,0.35,0.92c0,0.92-0.13,3.97-0.13,5.12c-0.04,0.44-0.13,0.71-0.39,0.71c-0.35,0-0.44-0.22-0.49-0.89l-0.04-0.48
	c-0.09-1.15-1.28-2.38-5.22-2.47l-5.56-0.13v18.1c0,4.06,0,7.55,0.22,9.45c0.13,1.23,0.4,2.21,1.73,2.39
	c0.62,0.08,1.59,0.17,2.25,0.17c0.49,0,0.7,0.13,0.7,0.36c0,0.31-0.35,0.44-0.84,0.44c-2.91,0-5.69-0.13-6.93-0.13
	c-1.01,0-3.8,0.13-5.56,0.13c-0.58,0-0.89-0.13-0.89-0.44c0-0.23,0.18-0.36,0.71-0.36c0.67,0,1.19-0.09,1.59-0.17
	c0.88-0.18,1.15-1.16,1.28-2.43c0.23-1.86,0.23-5.35,0.23-9.41V423.1z"/>
<path class="st0" d="M306.17,439.79c0-6.41,4.5-14.71,16.3-14.71c9.8,0,15.89,5.43,15.89,14.04c0,8.62-6.26,15.37-16.29,15.37
	C310.76,454.5,306.17,446.46,306.17,439.79 M332.58,440.5c0-8.31-4.99-13.43-11.26-13.43c-4.33,0-9.4,2.3-9.4,11.56
	c0,7.73,4.41,13.82,11.74,13.82C326.39,452.46,332.58,451.18,332.58,440.5"/>
<path class="st0" d="M345.23,436.48c0-5.69,0.05-6.76-0.05-7.95c-0.08-1.32-0.44-1.68-1.68-2.04c-0.31-0.08-0.97-0.13-1.51-0.13
	c-0.44,0-0.66-0.13-0.66-0.39c0-0.27,0.26-0.36,0.84-0.36c2.07,0,4.68,0.09,5.83,0.09c0.97,0,3.58-0.09,4.99-0.09
	c0.57,0,0.84,0.09,0.84,0.36c0,0.26-0.22,0.39-0.62,0.39c-0.44,0-0.66,0.05-1.15,0.13c-1.02,0.17-1.32,0.71-1.42,2.04
	c-0.09,1.19-0.09,2.25-0.09,7.95v5.26c0,5.47,1.06,7.59,2.96,9.09c1.72,1.37,3.58,1.5,4.9,1.5c1.68,0,3.67-0.48,5.21-1.98
	c2.16-2.04,2.25-5.3,2.25-9.14v-4.72c0-5.69-0.05-6.76-0.09-7.95c-0.09-1.28-0.4-1.68-1.63-2.04c-0.31-0.08-0.97-0.13-1.41-0.13
	c-0.44,0-0.66-0.13-0.66-0.39c0-0.27,0.26-0.36,0.8-0.36c1.98,0,4.59,0.09,4.63,0.09c0.44,0,3.05-0.09,4.56-0.09
	c0.53,0,0.79,0.09,0.79,0.36c0,0.26-0.23,0.39-0.66,0.39c-0.44,0-0.66,0.05-1.15,0.13c-1.06,0.17-1.33,0.71-1.41,2.04
	c-0.05,1.19-0.09,2.25-0.09,7.95v4.02c0,4.2-0.44,8.61-3.71,11.31c-2.74,2.3-5.69,2.7-8.21,2.7c-2.03,0-6.05-0.09-8.88-2.56
	c-1.98-1.72-3.53-4.5-3.53-9.94V436.48z"/>
<path class="st0" d="M379.57,436.47c0-5.69,0-6.76-0.04-7.95c-0.09-1.28-0.44-1.68-1.68-2.03c-0.31-0.09-0.97-0.13-1.55-0.13
	c-0.4,0-0.66-0.13-0.66-0.4c0-0.27,0.31-0.35,0.88-0.35c2.03,0,4.5,0.08,5.3,0.08c1.32,0,4.86-0.08,6.05-0.08
	c2.48,0,5.3,0.21,7.37,1.59c1.11,0.75,2.74,2.65,2.74,5.17c0,2.78-1.59,5.25-5.39,8.3c3.44,4.24,6.18,7.64,8.52,9.99
	c2.17,2.16,3.54,2.33,4.15,2.47c0.4,0.09,0.62,0.09,0.93,0.09c0.31,0,0.48,0.21,0.48,0.39c0,0.31-0.27,0.4-0.75,0.4h-3.71
	c-2.17,0-3.22-0.23-4.24-0.75c-1.68-0.84-3.13-2.6-5.3-5.52c-1.54-2.03-3.18-4.54-3.66-5.12c-0.23-0.22-0.44-0.27-0.71-0.27
	l-3.48-0.08c-0.18,0-0.31,0.08-0.31,0.31v0.52c0,3.5,0.04,6.41,0.22,8c0.13,1.1,0.31,1.81,1.5,1.98c0.57,0.08,1.41,0.13,1.9,0.13
	c0.31,0,0.49,0.21,0.49,0.39c0,0.27-0.31,0.4-0.8,0.4c-2.25,0-5.48-0.13-6.05-0.13c-0.75,0-3.22,0.13-4.77,0.13
	c-0.48,0-0.75-0.13-0.75-0.4c0-0.18,0.13-0.39,0.62-0.39c0.57,0,1.02-0.05,1.37-0.13c0.8-0.18,1.01-0.89,1.15-1.98
	c0.18-1.59,0.18-4.56,0.18-8V436.47z M384.52,439.39c0,0.4,0.08,0.52,0.35,0.66c0.84,0.27,1.98,0.35,2.96,0.35
	c1.55,0,2.08-0.12,2.74-0.61c1.19-0.84,2.52-2.48,2.52-5.57c0-5.3-3.63-6.66-5.92-6.66c-0.97,0-1.89,0.04-2.29,0.13
	c-0.27,0.08-0.35,0.21-0.35,0.52V439.39z"/>
<path class="st0" d="M409.85,436.48c0-5.69,0-6.76-0.05-7.95c-0.08-1.28-0.49-1.73-1.32-2c-0.44-0.12-0.93-0.17-1.41-0.17
	c-0.4,0-0.62-0.08-0.62-0.44c0-0.22,0.31-0.31,0.92-0.31c1.46,0,4.11,0.09,5.21,0.09c0.97,0,3.49-0.09,4.99-0.09
	c0.48,0,0.79,0.09,0.79,0.31c0,0.35-0.22,0.44-0.62,0.44c-0.4,0-0.71,0.05-1.15,0.13c-1.06,0.17-1.37,0.71-1.46,2.04
	c-0.09,1.19-0.09,2.25-0.09,7.95v6.62c0,3.62,0,6.63,0.18,8.21c0.13,1.01,0.39,1.59,1.54,1.77c0.53,0.09,1.41,0.14,1.99,0.14
	c0.44,0,0.62,0.22,0.62,0.39c0,0.26-0.31,0.4-0.75,0.4c-2.56,0-5.21-0.13-6.27-0.13c-0.88,0-3.53,0.13-5.08,0.13
	c-0.49,0-0.75-0.13-0.75-0.4c0-0.18,0.13-0.39,0.62-0.39c0.57,0,1.01-0.05,1.37-0.14c0.79-0.17,1.02-0.71,1.15-1.81
	c0.18-1.54,0.18-4.55,0.18-8.17V436.48z"/>
<path class="st0" d="M425.69,453.53c-0.62-0.27-0.75-0.44-0.75-1.28c0-2.04,0.18-4.37,0.22-4.99c0-0.58,0.18-0.97,0.49-0.97
	c0.35,0,0.4,0.36,0.4,0.62c0,0.49,0.13,1.27,0.35,1.94c0.84,2.79,3.75,3.71,6.18,3.71c3.36,0,5.39-2.12,5.39-4.77
	c0-1.63-0.4-3.26-3.84-5.3l-2.25-1.33c-4.6-2.7-6.1-5.2-6.1-8.52c0-4.59,4.42-7.56,9.8-7.56c2.51,0,4.51,0.36,5.52,0.62
	c0.35,0.09,0.53,0.23,0.53,0.49c0,0.49-0.13,1.55-0.13,4.5c0,0.8-0.18,1.2-0.49,1.2c-0.26,0-0.4-0.23-0.4-0.67
	c0-0.35-0.18-1.5-1.01-2.47c-0.58-0.71-1.81-1.77-4.33-1.77c-2.78,0-5.3,1.46-5.3,4.02c0,1.68,0.62,3.01,4.11,4.95l1.59,0.88
	c5.12,2.83,6.71,5.7,6.71,9.11c0,2.78-1.06,5.03-3.88,7.02c-1.86,1.32-4.42,1.55-6.49,1.55
	C429.76,454.5,427.37,454.27,425.69,453.53"/>
<path class="st0" d="M452.75,425.75c0.09-0.62,0.44-0.98,0.75-0.98c0.4,0,0.66,0.18,1.19,1.19l10.42,20.93l10.42-21.2
	c0.31-0.62,0.66-0.92,1.01-0.92c0.31,0,0.75,0.4,0.88,1.19l3.54,23.17c0.35,2.35,0.71,3.36,1.9,3.71c1.1,0.31,1.72,0.36,2.21,0.36
	c0.36,0,0.62,0.12,0.62,0.35c0,0.31-0.44,0.44-1.02,0.44c-0.97,0-6.49-0.18-8.04-0.27c-0.93-0.04-1.15-0.22-1.15-0.44
	c0-0.18,0.18-0.31,0.44-0.39c0.22-0.09,0.31-0.54,0.17-1.59l-2.16-16.25h-0.13l-8.35,16.78c-0.88,1.77-1.1,2.12-1.55,2.12
	c-0.48,0-0.93-0.75-1.54-1.89c-0.93-1.73-4.02-7.47-4.46-8.53c-0.31-0.71-2.61-5.43-3.89-8.04h-0.13l-1.85,14.66
	c-0.09,0.67-0.13,1.15-0.13,1.77c0,0.7,0.53,0.97,1.19,1.1c0.67,0.13,1.02,0.18,1.37,0.18c0.35,0,0.62,0.18,0.62,0.35
	c0,0.35-0.35,0.44-0.93,0.44c-1.63,0-3.4-0.13-4.1-0.13c-0.75,0-2.61,0.13-3.84,0.13c-0.4,0-0.71-0.09-0.71-0.44
	c0-0.18,0.22-0.35,0.62-0.35c0.31,0,0.57,0,1.19-0.09c1.06-0.13,1.41-1.63,1.59-2.87L452.75,425.75z"/>
<path class="st0" d="M492.03,436.48c0-5.69,0-6.76-0.05-7.95c-0.09-1.28-0.44-1.68-1.68-2.04c-0.31-0.08-0.97-0.13-1.54-0.13
	c-0.4,0-0.66-0.13-0.66-0.39c0-0.27,0.31-0.36,0.88-0.36c2.03,0,4.5,0.09,5.61,0.09c1.24,0,9.85,0.04,10.59,0
	c0.71-0.04,1.33-0.18,1.63-0.22c0.22-0.04,0.44-0.17,0.62-0.17c0.22,0,0.27,0.17,0.27,0.36c0,0.26-0.22,0.7-0.31,2.43
	c-0.04,0.4-0.13,2.03-0.22,2.47c-0.05,0.18-0.13,0.62-0.44,0.62c-0.27,0-0.31-0.17-0.31-0.48c0-0.26-0.04-0.93-0.27-1.37
	c-0.31-0.66-0.62-1.2-2.56-1.37c-0.66-0.09-5.3-0.18-6.09-0.18c-0.18,0-0.27,0.13-0.27,0.35v9.28c0,0.21,0.04,0.39,0.27,0.39
	c0.88,0,5.92,0,6.8-0.08c0.93-0.1,1.5-0.18,1.85-0.58c0.31-0.27,0.44-0.49,0.62-0.49c0.17,0,0.31,0.18,0.31,0.4
	c0,0.22-0.09,0.84-0.31,2.74c-0.09,0.75-0.18,2.25-0.18,2.51c0,0.31-0.04,0.84-0.39,0.84c-0.27,0-0.36-0.14-0.36-0.31
	c-0.05-0.4-0.05-0.88-0.13-1.37c-0.22-0.75-0.71-1.32-2.17-1.46c-0.71-0.09-5.12-0.17-6.09-0.17c-0.17,0-0.22,0.17-0.22,0.4v3
	c0,1.28-0.04,4.45,0,5.56c0.09,2.56,1.28,3.14,5.26,3.14c1.01,0,2.65-0.05,3.66-0.49c0.97-0.44,1.41-1.24,1.68-2.78
	c0.09-0.4,0.18-0.57,0.44-0.57c0.31,0,0.35,0.48,0.35,0.88c0,0.84-0.31,3.4-0.53,4.15c-0.26,0.98-0.62,0.98-2.08,0.98
	c-2.91,0-5.25-0.04-7.16-0.13c-1.9-0.04-3.35-0.09-4.5-0.09c-0.44,0-1.28,0.05-2.2,0.05c-0.93,0.04-1.9,0.09-2.7,0.09
	c-0.49,0-0.75-0.13-0.75-0.4c0-0.18,0.14-0.39,0.62-0.39c0.58,0,1.02-0.05,1.37-0.14c0.79-0.17,1.01-0.89,1.15-1.98
	c0.18-1.59,0.18-4.55,0.18-8V436.48z"/>
<path class="st0" d="M32.81,482.67c0,5.91,0.16,8.48,0.88,9.2c0.64,0.64,1.69,0.92,4.82,0.92c2.13,0,3.9-0.04,4.86-1.21
	c0.52-0.64,0.92-1.65,1.05-2.41c0.04-0.32,0.12-0.52,0.36-0.52c0.2,0,0.24,0.16,0.24,0.6c0,0.44-0.28,2.85-0.6,4.02
	c-0.28,0.93-0.4,1.09-2.53,1.09c-2.89,0-4.98-0.08-6.67-0.12c-1.69-0.08-2.94-0.12-4.1-0.12c-0.16,0-0.84,0.04-1.65,0.04
	c-0.81,0.04-1.69,0.08-2.29,0.08c-0.44,0-0.64-0.08-0.64-0.32c0-0.12,0.08-0.24,0.32-0.24c0.36,0,0.84-0.08,1.21-0.16
	c0.8-0.16,1.01-1.04,1.16-2.22c0.21-1.68,0.21-4.86,0.21-8.72v-7.07c0-6.28,0-7.4-0.08-8.69c-0.08-1.37-0.4-2.01-1.73-2.29
	c-0.32-0.08-1-0.12-1.37-0.12c-0.16,0-0.32-0.08-0.32-0.24c0-0.24,0.2-0.32,0.64-0.32c1.81,0,4.34,0.12,4.54,0.12
	c0.2,0,3.14-0.12,4.34-0.12c0.44,0,0.64,0.09,0.64,0.32c0,0.16-0.16,0.24-0.32,0.24c-0.28,0-0.85,0.04-1.33,0.12
	c-1.17,0.2-1.49,0.88-1.57,2.29c-0.08,1.29-0.08,2.41-0.08,8.69V482.67z"/>
<path class="st0" d="M52.3,478.29c0-5.31,0-6.27-0.08-7.36c-0.08-1.17-0.28-1.73-1.45-1.89c-0.28-0.04-0.89-0.08-1.21-0.08
	c-0.12,0-0.28-0.17-0.28-0.28c0-0.2,0.16-0.28,0.56-0.28c1.61,0,3.9,0.08,4.1,0.08c0.24,0,7.64,0.04,8.44,0
	c0.68-0.04,1.32-0.16,1.61-0.2c0.16-0.04,0.32-0.16,0.48-0.16c0.12,0,0.16,0.16,0.16,0.32c0,0.24-0.2,0.64-0.28,1.61
	c-0.04,0.32-0.12,1.85-0.2,2.25c-0.04,0.16-0.16,0.36-0.32,0.36c-0.2,0-0.28-0.16-0.28-0.44c0-0.24-0.04-0.8-0.2-1.21
	c-0.24-0.56-0.6-0.8-2.53-1.04c-0.6-0.07-4.7-0.12-5.1-0.12c-0.16,0-0.2,0.12-0.2,0.37v9.29c0,0.24,0,0.36,0.2,0.36
	c0.44,0,5.1,0,5.91-0.08c0.84-0.08,1.37-0.12,1.73-0.48c0.24-0.24,0.4-0.44,0.52-0.44c0.12,0,0.2,0.09,0.2,0.28
	c0,0.2-0.2,0.76-0.28,1.89c-0.08,0.68-0.15,1.97-0.15,2.21c0,0.28-0.08,0.64-0.32,0.64c-0.16,0-0.24-0.12-0.24-0.32
	c0-0.32,0-0.69-0.16-1.13c-0.12-0.48-0.44-0.88-1.81-1.05c-0.96-0.12-4.74-0.16-5.35-0.16c-0.2,0-0.24,0.12-0.24,0.24v2.85
	c0,1.16-0.04,5.14,0,5.83c0.08,2.29,0.72,2.73,4.22,2.73c0.92,0,2.61,0,3.54-0.37c0.93-0.4,1.41-1,1.61-2.37
	c0.08-0.4,0.16-0.52,0.36-0.52c0.2,0,0.24,0.28,0.24,0.52c0,0.24-0.28,2.57-0.48,3.3c-0.24,0.88-0.6,0.88-1.97,0.88
	c-2.65,0-4.7-0.08-6.15-0.12c-1.49-0.08-2.41-0.08-2.93-0.08c-0.08,0-0.76,0-1.53,0.04c-0.68,0.04-1.49,0.08-2.05,0.08
	c-0.36,0-0.56-0.08-0.56-0.28c0-0.12,0.08-0.28,0.28-0.28c0.32,0,0.76-0.12,1.09-0.16c0.68-0.13,0.76-0.8,0.92-1.81
	c0.2-1.41,0.2-4.1,0.2-7.4V478.29z"/>
<path class="st0" d="M71.47,493.76c-0.48-0.24-0.53-0.37-0.53-1.28c0-1.69,0.17-3.05,0.21-3.62c0-0.36,0.08-0.57,0.28-0.57
	c0.2,0,0.32,0.12,0.32,0.4c0,0.28,0,0.76,0.12,1.24c0.56,2.5,3.22,3.38,5.59,3.38c3.49,0,5.3-1.97,5.3-4.54
	c0-2.45-1.32-3.62-4.46-5.95l-1.6-1.2c-3.82-2.86-5.06-4.95-5.06-7.32c0-4.02,3.17-6.43,7.84-6.43c1.41,0,2.81,0.21,3.65,0.4
	c0.69,0.16,0.97,0.16,1.25,0.16c0.28,0,0.36,0.04,0.36,0.24c0,0.16-0.16,1.28-0.16,3.62c0,0.52-0.04,0.76-0.28,0.76
	c-0.24,0-0.28-0.16-0.32-0.44c-0.04-0.4-0.32-1.33-0.52-1.68c-0.24-0.41-1.41-1.69-4.58-1.69c-2.57,0-4.71,1.29-4.71,3.7
	c0,2.16,1.09,3.42,4.58,5.79l1.01,0.69c4.3,2.93,5.79,5.3,5.79,8.24c0,2-0.76,4.18-3.3,5.83c-1.49,0.96-3.7,1.21-5.63,1.21
	C74.97,494.68,72.92,494.44,71.47,493.76"/>
<path class="st0" d="M109.48,475.51c0-6.27,0-7.39-0.07-8.68c-0.08-1.37-0.4-2.02-1.74-2.29c-0.32-0.08-1-0.12-1.36-0.12
	c-0.16,0-0.32-0.08-0.32-0.24c0-0.25,0.2-0.32,0.64-0.32c1.81,0,4.35,0.12,4.55,0.12c0.96,0,2.53-0.12,4.38-0.12
	c6.59,0,8.03,4.02,8.03,6.03c0,3.29-1.88,5.26-3.77,7.23c2.97,0.92,6.95,3.77,6.95,8.48c0,4.3-3.38,8.76-10.25,8.76
	c-0.44,0-1.73-0.08-2.89-0.12c-1.16-0.08-2.29-0.12-2.45-0.12c-0.08,0-0.76,0-1.61,0.04c-0.8,0-1.73,0.08-2.33,0.08
	c-0.44,0-0.64-0.08-0.64-0.32c0-0.12,0.08-0.25,0.32-0.25c0.36,0,0.84-0.07,1.21-0.16c0.8-0.16,1.01-1.04,1.17-2.21
	c0.2-1.69,0.2-4.87,0.2-8.72V475.51z M112.7,476.39c0,0.29,0.08,0.37,0.28,0.44c0.24,0.04,0.96,0.16,2.45,0.16
	c2.25,0,2.81-0.08,3.65-1.04c0.85-0.96,1.45-2.41,1.45-4.06c0-3.33-1.49-6.92-5.43-6.92c-0.44,0-1.29,0.05-1.93,0.2
	c-0.36,0.08-0.48,0.2-0.48,0.44V476.39z M112.7,480.66c0,3.09,0,8.07,0.04,8.68c0.12,1.97,0.12,2.53,1.37,3.13
	c1.08,0.53,2.81,0.6,3.54,0.6c2.17,0,5.67-1.16,5.67-5.71c0-2.41-0.8-5.91-3.9-8.03c-1.37-0.93-2.37-1.04-3.34-1.17
	c-0.52-0.08-2.53-0.08-3.13-0.08c-0.16,0-0.24,0.08-0.24,0.28V480.66z"/>
<path class="st0" d="M141.32,469.08c0.44-1.13,0.6-1.33,0.84-1.33c0.36,0,0.48,0.48,0.84,1.24c0.64,1.46,6.31,15.56,8.48,20.75
	c1.28,3.05,2.25,3.5,3.01,3.74c0.52,0.17,1.04,0.2,1.41,0.2c0.2,0,0.44,0.08,0.44,0.28c0,0.2-0.4,0.28-0.81,0.28
	c-0.52,0-3.13,0-5.58-0.08c-0.68-0.04-1.25-0.04-1.25-0.24c0-0.16,0.08-0.16,0.24-0.24c0.2-0.08,0.57-0.36,0.33-0.92l-3.18-7.85
	c-0.08-0.16-0.12-0.2-0.32-0.2h-8.16c-0.16,0-0.28,0.08-0.36,0.28l-2.01,5.46c-0.32,0.85-0.52,1.69-0.52,2.29
	c0,0.68,0.6,0.92,1.21,0.92h0.32c0.28,0,0.36,0.12,0.36,0.28c0,0.2-0.2,0.28-0.52,0.28c-0.84,0-2.77-0.12-3.17-0.12
	c-0.36,0-2.13,0.12-3.58,0.12c-0.44,0-0.68-0.08-0.68-0.28c0-0.16,0.16-0.28,0.32-0.28c0.24,0,0.77-0.04,1.05-0.08
	c1.61-0.2,2.29-1.4,2.98-3.14L141.32,469.08z M145.26,483.31c0.16,0,0.16-0.08,0.12-0.24l-3.5-9.36c-0.2-0.53-0.4-0.53-0.6,0
	l-3.3,9.36c-0.03,0.16,0,0.24,0.12,0.24H145.26z"/>
<path class="st0" d="M159.2,478.29c0-5.31,0-6.27-0.08-7.36c-0.08-1.09-0.28-1.73-1.45-1.89c-0.28-0.04-0.88-0.08-1.21-0.08
	c-0.12,0-0.28-0.17-0.28-0.28c0-0.2,0.16-0.28,0.56-0.28c1.61,0,3.74,0.08,4.06,0.08c0.32,0,2.53-0.08,3.58-0.08
	c0.4,0,0.6,0.08,0.6,0.28c0,0.12-0.16,0.28-0.32,0.28c-0.24,0-0.44,0-0.89,0.08c-0.92,0.16-1.13,0.76-1.21,1.89
	c-0.08,1.08-0.08,2.04-0.08,7.36v4.78c0,4.95,1.08,7,2.61,8.36c1.73,1.57,3.26,1.85,5.27,1.85c2.17,0,4.26-0.96,5.47-2.41
	c1.65-1.97,2.01-4.78,2.01-8.28v-4.3c0-5.31-0.04-6.27-0.08-7.36c-0.04-1.09-0.24-1.73-1.41-1.89c-0.28-0.04-0.88-0.08-1.2-0.08
	c-0.16,0-0.28-0.17-0.28-0.28c0-0.2,0.16-0.28,0.56-0.28c1.57,0,3.62,0.08,3.82,0.08c0.24,0,1.93-0.08,2.97-0.08
	c0.4,0,0.56,0.08,0.56,0.28c0,0.12-0.12,0.28-0.28,0.28c-0.24,0-0.44,0-0.88,0.08c-0.97,0.2-1.17,0.76-1.25,1.89
	c-0.08,1.08-0.04,2.04-0.04,7.36v3.66c0,3.7-0.48,7.83-3.3,10.25c-2.57,2.21-5.3,2.49-7.39,2.49c-1.17,0-4.86-0.08-7.36-2.41
	c-1.73-1.61-3.1-3.98-3.1-8.96V478.29z"/>
<path class="st0" d="M194.88,481.02l-5.63-9.16c-0.8-1.33-1.48-2.29-2.69-2.65c-0.56-0.16-1.28-0.24-1.49-0.24
	c-0.2,0-0.32-0.2-0.32-0.32c0-0.16,0.16-0.24,0.6-0.24c1.01,0,3.86,0.08,4.14,0.08c0.32,0,2.25-0.08,3.46-0.08
	c0.48,0,0.6,0.08,0.6,0.24c0,0.16-0.12,0.32-0.32,0.32c-0.24,0-0.68,0-0.96,0.08c-0.32,0.04-0.44,0.28-0.44,0.52
	c0,0.32,0.16,0.76,0.36,1.13c1.49,2.69,2.82,5.15,4.66,8.08c1.05-1.49,4.78-7.24,5.11-7.96c0.28-0.49,0.36-0.81,0.36-1.2
	c0-0.24-0.24-0.44-0.6-0.56c-0.36-0.08-0.76-0.08-0.96-0.08c-0.2,0-0.32-0.16-0.32-0.32c0-0.16,0.16-0.24,0.6-0.24
	c1.33,0,2.82,0.08,3.14,0.08c0.32,0,1.77-0.08,2.97-0.08c0.4,0,0.56,0.08,0.56,0.24c0,0.12-0.12,0.32-0.36,0.32
	c-0.28,0-0.8,0.04-1.2,0.16c-1.01,0.32-1.65,1.2-2.65,2.69l-5.67,8.28c0.68,1.04,6.71,10.98,7.48,11.9
	c0.56,0.72,0.96,1.21,2.01,1.49c0.48,0.12,1,0.2,1.2,0.2c0.21,0,0.28,0.12,0.28,0.28c0,0.16-0.16,0.28-0.48,0.28
	c-2.17,0-3.86,0-5.79-0.08c-0.93-0.04-1.09-0.12-1.09-0.28c0-0.12,0.08-0.23,0.2-0.28c0.2-0.04,0.53-0.4,0.2-0.97
	c-1.93-3.34-3.86-6.63-5.98-10.09l-5.43,8.97c-0.32,0.55-0.44,1.16-0.44,1.53c0,0.32,0.24,0.48,0.56,0.56
	c0.2,0.04,0.48,0.08,0.64,0.08c0.2,0,0.32,0.16,0.32,0.33c0,0.15-0.2,0.24-0.44,0.24c-0.84,0-3.17-0.12-3.5-0.12
	c-0.28,0-2.05,0.12-3.22,0.12c-0.28,0-0.32-0.12-0.32-0.24c0-0.16,0.08-0.33,0.28-0.33c0.28,0,0.8-0.08,1.33-0.2
	c1.04-0.28,1.77-0.93,2.89-2.65L194.88,481.02z"/>
<path class="st0" d="M221.81,481.66c0.68,0,1.21,0.08,1.21,0.4c0,0.49-0.76,0.57-1.41,0.69c-1.08,0.16-8.2,1.12-9.57,1.48
	c-0.76,0.2-1.45,0.61-1.65,0.61c-0.24,0-0.28-0.25-0.2-0.61l0.61-2.25c0.08-0.28,0.24-0.32,0.88-0.32H221.81z"/>
<path class="st0" d="M230.65,478.29c0-5.31,0-6.28-0.08-7.36c-0.08-1.17-0.28-1.73-1.45-1.89c-0.28-0.04-0.89-0.08-1.21-0.08
	c-0.12,0-0.28-0.16-0.28-0.28c0-0.2,0.16-0.28,0.56-0.28c1.61,0,3.9,0.08,4.1,0.08c0.41,0,2.66-0.08,4.75-0.08
	c3.54,0,10.01-0.32,14.19,3.9c1.77,1.77,3.46,4.62,3.46,8.68c0,4.3-1.85,7.6-3.82,9.61c-1.53,1.56-4.7,3.93-10.73,3.93
	c-1.53,0-3.42-0.12-4.94-0.2c-1.53-0.12-2.74-0.2-2.9-0.2c-0.07,0-0.72,0.04-1.44,0.04c-0.72,0.04-1.57,0.08-2.13,0.08
	c-0.36,0-0.56-0.08-0.56-0.28c0-0.12,0.08-0.28,0.28-0.28c0.32,0,0.76-0.08,1.08-0.16c0.69-0.16,0.76-0.8,0.93-1.81
	c0.2-1.4,0.2-4.1,0.2-7.4V478.29z M233.87,481.98c0,3.62,0,6.79,0.04,7.43c0.04,0.85,0.12,2.09,0.4,2.45
	c0.44,0.64,1.69,1.37,5.87,1.37c3.26,0,6.15-1.09,8.28-3.1c1.85-1.73,2.77-4.98,2.77-8.12c0-4.34-1.89-7.12-3.34-8.56
	c-3.34-3.38-7.24-3.82-11.46-3.82c-0.68,0-1.81,0.12-2.13,0.25c-0.32,0.12-0.44,0.28-0.44,0.68V481.98z"/>
<path class="st0" d="M262.8,478.29c0-5.31,0-6.27-0.08-7.36c-0.08-1.17-0.28-1.73-1.45-1.89c-0.28-0.04-0.88-0.08-1.21-0.08
	c-0.12,0-0.28-0.17-0.28-0.28c0-0.2,0.16-0.28,0.56-0.28c1.61,0,3.9,0.08,4.1,0.08c0.24,0,7.64,0.04,8.44,0
	c0.68-0.04,1.33-0.16,1.61-0.2c0.16-0.04,0.32-0.16,0.48-0.16c0.12,0,0.16,0.16,0.16,0.32c0,0.24-0.2,0.64-0.28,1.61
	c-0.04,0.32-0.12,1.85-0.2,2.25c-0.04,0.16-0.16,0.36-0.32,0.36c-0.2,0-0.28-0.16-0.28-0.44c0-0.24-0.04-0.8-0.2-1.21
	c-0.24-0.56-0.6-0.8-2.53-1.04c-0.6-0.07-4.7-0.12-5.11-0.12c-0.16,0-0.2,0.12-0.2,0.37v9.29c0,0.24,0,0.36,0.2,0.36
	c0.44,0,5.11,0,5.91-0.08c0.84-0.08,1.37-0.12,1.73-0.48c0.24-0.24,0.4-0.44,0.52-0.44c0.12,0,0.2,0.09,0.2,0.28
	c0,0.2-0.2,0.76-0.29,1.89c-0.08,0.68-0.16,1.97-0.16,2.21c0,0.28-0.08,0.64-0.32,0.64c-0.16,0-0.24-0.12-0.24-0.32
	c0-0.32,0-0.69-0.16-1.13c-0.12-0.48-0.44-0.88-1.81-1.05c-0.97-0.12-4.74-0.16-5.35-0.16c-0.2,0-0.24,0.12-0.24,0.24v2.85
	c0,1.16-0.04,5.14,0,5.83c0.08,2.29,0.72,2.73,4.22,2.73c0.92,0,2.61,0,3.54-0.37c0.93-0.4,1.41-1,1.61-2.37
	c0.08-0.4,0.16-0.52,0.36-0.52c0.2,0,0.24,0.28,0.24,0.52c0,0.24-0.28,2.57-0.49,3.3c-0.24,0.88-0.6,0.88-1.97,0.88
	c-2.65,0-4.71-0.08-6.15-0.12c-1.49-0.08-2.41-0.08-2.94-0.08c-0.08,0-0.76,0-1.53,0.04c-0.68,0.04-1.48,0.08-2.05,0.08
	c-0.36,0-0.56-0.08-0.56-0.28c0-0.12,0.08-0.28,0.28-0.28c0.32,0,0.76-0.12,1.09-0.16c0.68-0.13,0.76-0.8,0.92-1.81
	c0.2-1.41,0.2-4.1,0.2-7.4V478.29z"/>
<path class="st0" d="M291.78,481.66c0.69,0,1.21,0.08,1.21,0.4c0,0.49-0.76,0.57-1.41,0.69c-1.08,0.16-8.2,1.12-9.57,1.48
	c-0.76,0.2-1.45,0.61-1.65,0.61c-0.24,0-0.28-0.25-0.2-0.61l0.61-2.25c0.08-0.28,0.24-0.32,0.88-0.32H291.78z"/>
<path class="st0" d="M301.54,475.51c0-6.27,0-7.4-0.08-8.68c-0.08-1.37-0.4-2.02-1.73-2.29c-0.32-0.08-1.01-0.12-1.37-0.12
	c-0.16,0-0.32-0.08-0.32-0.24c0-0.24,0.2-0.32,0.64-0.32c1.81,0,4.22,0.12,4.54,0.12c0.88,0,3.21-0.12,5.06-0.12
	c5.02,0,6.83,1.69,7.47,2.29c0.88,0.85,2.01,2.66,2.01,4.79c0,5.71-4.18,9.57-9.89,9.57c-0.2,0-0.64,0-0.84-0.04
	c-0.2,0-0.44-0.08-0.44-0.28c0-0.32,0.24-0.37,1.08-0.37c3.9,0,6.95-2.85,6.95-6.55c0-1.33-0.12-4.02-2.25-6.2
	c-2.13-2.17-4.58-2.01-5.51-2.01c-0.68,0-1.37,0.08-1.73,0.24c-0.24,0.07-0.32,0.36-0.32,0.76v16.52c0,3.85,0,7.04,0.2,8.72
	c0.12,1.17,0.36,2.05,1.57,2.21c0.57,0.08,1.45,0.16,1.81,0.16c0.24,0,0.32,0.12,0.32,0.24c0,0.2-0.2,0.32-0.64,0.32
	c-2.21,0-4.74-0.12-4.94-0.12c-0.12,0-2.65,0.12-3.86,0.12c-0.44,0-0.64-0.08-0.64-0.32c0-0.12,0.08-0.24,0.32-0.24
	c0.36,0,0.85-0.08,1.21-0.16c0.8-0.16,1-1.04,1.17-2.21c0.2-1.69,0.2-4.87,0.2-8.72V475.51z"/>
<path class="st0" d="M325.78,478.28c0-5.3,0-6.27-0.08-7.36c-0.08-1.16-0.28-1.73-1.45-1.89c-0.28-0.04-0.89-0.08-1.21-0.08
	c-0.12,0-0.29-0.16-0.29-0.28c0-0.2,0.17-0.28,0.57-0.28c1.61,0,3.98,0.08,4.18,0.08c0.36,0,3.34-0.08,4.42-0.08
	c2.25,0,4.74,0.2,6.59,1.49c0.89,0.64,2.45,2.29,2.45,4.66c0,2.53-1.05,4.98-4.34,7.79c2.89,3.62,5.34,6.72,7.39,8.84
	c1.89,1.93,3.05,2.25,3.94,2.38c0.68,0.12,1.04,0.12,1.25,0.12c0.2,0,0.32,0.16,0.32,0.28c0,0.2-0.2,0.28-0.84,0.28h-2.21
	c-2.01,0-2.89-0.2-3.78-0.68c-1.53-0.8-2.81-2.45-4.82-5.02c-1.49-1.85-3.06-4.06-3.82-4.98c-0.16-0.17-0.24-0.2-0.49-0.2l-4.5-0.08
	c-0.16,0-0.24,0.08-0.24,0.28v0.8c0,3.3,0,5.95,0.16,7.36c0.12,1,0.32,1.65,1.41,1.81c0.48,0.08,1.25,0.16,1.57,0.16
	c0.24,0,0.28,0.16,0.28,0.28c0,0.16-0.16,0.28-0.56,0.28c-1.93,0-4.18-0.12-4.34-0.12c-0.04,0-2.41,0.12-3.5,0.12
	c-0.36,0-0.56-0.08-0.56-0.28c0-0.12,0.08-0.28,0.28-0.28c0.32,0,0.76-0.08,1.09-0.16c0.68-0.16,0.76-0.8,0.93-1.81
	c0.2-1.41,0.2-4.1,0.2-7.4V478.28z M328.83,481.18c0,0.2,0.08,0.32,0.24,0.44c0.52,0.28,2.33,0.52,3.9,0.52
	c0.85,0,1.81-0.04,2.65-0.6c1.21-0.8,2.13-2.61,2.13-5.23c0-4.26-2.33-6.71-6.11-6.71c-1.05,0-2.17,0.12-2.53,0.2
	c-0.16,0.08-0.28,0.2-0.28,0.4V481.18z"/>
<path class="st0" d="M363.36,467.91c7.96,0,13.99,4.87,13.99,12.83c0,7.64-5.67,13.95-14.19,13.95c-9.69,0-13.83-7.27-13.83-13.43
	C349.32,475.75,353.58,467.91,363.36,467.91 M364.16,493.28c3.17,0,9.57-1.69,9.57-11.58c0-8.2-4.99-12.51-10.57-12.51
	c-5.91,0-10.17,3.7-10.17,11.13C352.98,488.29,357.77,493.28,364.16,493.28"/>
<path class="st0" d="M393.21,489.78c2.05-4.58,6.67-16.24,7.44-18.7c0.16-0.52,0.32-1,0.32-1.28c0-0.28-0.12-0.6-0.48-0.72
	c-0.4-0.12-0.8-0.12-1.2-0.12c-0.2,0-0.4-0.12-0.4-0.28c0-0.2,0.24-0.28,0.8-0.28c1.41,0,3.02,0.08,3.46,0.08
	c0.2,0,1.73-0.08,2.77-0.08c0.36,0,0.56,0.08,0.56,0.25c0,0.16-0.12,0.32-0.4,0.32c-0.24,0-1.05,0-1.69,0.4
	c-0.48,0.32-1.04,0.81-1.97,3.13c-0.4,0.96-2.13,5.06-3.94,9.25c-2.17,4.98-3.74,8.68-4.54,10.37c-0.96,2.05-1.17,2.57-1.53,2.57
	c-0.4,0-0.64-0.44-1.33-2.09l-8.68-20.94c-0.81-1.93-1.29-2.29-2.45-2.57c-0.56-0.12-1.16-0.12-1.37-0.12c-0.2,0-0.28-0.2-0.28-0.32
	c0-0.21,0.36-0.25,0.92-0.25c1.69,0,3.7,0.08,4.14,0.08c0.36,0,1.93-0.08,3.3-0.08c0.64,0,0.96,0.08,0.96,0.25
	c0,0.16-0.12,0.32-0.36,0.32c-0.41,0-0.96,0.03-1.29,0.16c-0.36,0.16-0.4,0.36-0.4,0.6c0,0.44,0.44,1.49,0.96,2.85L393.21,489.78z"
	/>
<path class="st0" d="M411.7,478.29c0-5.31,0-6.27-0.08-7.36c-0.08-1.17-0.28-1.73-1.45-1.89c-0.28-0.04-0.88-0.08-1.21-0.08
	c-0.12,0-0.28-0.17-0.28-0.28c0-0.2,0.16-0.28,0.56-0.28c1.61,0,3.9,0.08,4.1,0.08c0.24,0,7.64,0.04,8.44,0
	c0.68-0.04,1.33-0.16,1.61-0.2c0.16-0.04,0.32-0.16,0.48-0.16c0.12,0,0.16,0.16,0.16,0.32c0,0.24-0.2,0.64-0.28,1.61
	c-0.04,0.32-0.12,1.85-0.2,2.25c-0.04,0.16-0.16,0.36-0.32,0.36c-0.2,0-0.28-0.16-0.28-0.44c0-0.24-0.04-0.8-0.2-1.21
	c-0.24-0.56-0.6-0.8-2.53-1.04c-0.61-0.07-4.71-0.12-5.11-0.12c-0.16,0-0.2,0.12-0.2,0.37v9.29c0,0.24,0,0.36,0.2,0.36
	c0.44,0,5.11,0,5.91-0.08c0.84-0.08,1.36-0.12,1.73-0.48c0.24-0.24,0.4-0.44,0.52-0.44c0.12,0,0.2,0.09,0.2,0.28
	c0,0.2-0.2,0.76-0.28,1.89c-0.08,0.68-0.16,1.97-0.16,2.21c0,0.28-0.08,0.64-0.32,0.64c-0.16,0-0.24-0.12-0.24-0.32
	c0-0.32,0-0.69-0.16-1.13c-0.12-0.48-0.44-0.88-1.81-1.05c-0.97-0.12-4.74-0.16-5.35-0.16c-0.2,0-0.24,0.12-0.24,0.24v2.85
	c0,1.16-0.04,5.14,0,5.83c0.08,2.29,0.72,2.73,4.22,2.73c0.93,0,2.62,0,3.54-0.37c0.93-0.4,1.41-1,1.61-2.37
	c0.08-0.4,0.16-0.52,0.36-0.52c0.2,0,0.24,0.28,0.24,0.52c0,0.24-0.28,2.57-0.49,3.3c-0.24,0.88-0.6,0.88-1.97,0.88
	c-2.65,0-4.7-0.08-6.15-0.12c-1.48-0.08-2.41-0.08-2.93-0.08c-0.08,0-0.76,0-1.53,0.04c-0.68,0.04-1.48,0.08-2.05,0.08
	c-0.36,0-0.56-0.08-0.56-0.28c0-0.12,0.08-0.28,0.28-0.28c0.32,0,0.76-0.12,1.09-0.16c0.68-0.13,0.76-0.8,0.92-1.81
	c0.2-1.41,0.2-4.1,0.2-7.4V478.29z"/>
<path class="st0" d="M435.33,489.58c0.08,2.81,0.4,3.66,1.37,3.9c0.64,0.16,1.45,0.2,1.77,0.2c0.16,0,0.28,0.12,0.28,0.28
	c0,0.2-0.24,0.28-0.64,0.28c-2.01,0-3.41-0.12-3.74-0.12c-0.32,0-1.81,0.12-3.42,0.12c-0.36,0-0.56-0.04-0.56-0.28
	c0-0.16,0.12-0.28,0.28-0.28c0.28,0,0.93-0.04,1.45-0.2c0.88-0.24,1-1.16,1-4.26v-19.57c0-1.37,0.2-1.73,0.48-1.73
	c0.4,0,1.01,0.69,1.37,1.04c0.56,0.57,5.71,6.03,11.18,11.66c3.49,3.62,7.27,7.68,8.36,8.81l-0.36-17.12
	c-0.04-2.21-0.24-2.97-1.33-3.18c-0.64-0.12-1.45-0.16-1.73-0.16c-0.24,0-0.28-0.2-0.28-0.32c0-0.2,0.28-0.24,0.68-0.24
	c1.61,0,3.29,0.08,3.7,0.08c0.4,0,1.57-0.08,3.01-0.08c0.36,0,0.65,0.04,0.65,0.24c0,0.12-0.17,0.32-0.4,0.32
	c-0.16,0-0.44,0-0.84,0.08c-1.17,0.24-1.25,0.92-1.25,2.98l-0.08,20.02c0,2.25-0.04,2.45-0.28,2.45c-0.36,0-0.72-0.28-2.69-2.09
	c-0.36-0.32-5.47-5.34-9.21-9.24c-4.1-4.31-8.08-8.49-9.17-9.69L435.33,489.58z"/>
<path class="st0" d="M467.04,491.03c-3.46-2.98-4.3-6.88-4.3-10.14c0-2.29,0.84-6.27,3.98-9.32c2.13-2.05,5.35-3.66,10.77-3.66
	c1.41,0,3.42,0.12,5.15,0.4c1.33,0.25,2.45,0.49,3.62,0.53c0.36,0,0.44,0.16,0.44,0.36c0,0.29-0.08,0.69-0.16,1.93
	c-0.04,1.12-0.04,3.01-0.08,3.49c-0.04,0.53-0.2,0.73-0.4,0.73c-0.24,0-0.28-0.24-0.28-0.73c0-1.32-0.56-2.69-1.49-3.41
	c-1.25-1.04-3.82-1.89-6.95-1.89c-4.54,0-6.71,1.2-7.96,2.37c-2.61,2.41-3.17,5.46-3.17,8.92c0,6.56,5.18,12.39,12.74,12.39
	c2.65,0,4.42-0.21,5.83-1.61c0.76-0.76,1.25-2.21,1.37-2.85c0.08-0.36,0.12-0.48,0.36-0.48c0.16,0,0.32,0.24,0.32,0.48
	c0,0.24-0.48,3.22-0.84,4.38c-0.2,0.65-0.28,0.76-0.88,1.01c-1.45,0.56-4.1,0.76-6.39,0.76
	C473.39,494.68,469.81,493.44,467.04,491.03"/>
<path class="st0" d="M495.21,478.29c0-5.31,0-6.27-0.08-7.36c-0.08-1.17-0.28-1.73-1.45-1.89c-0.28-0.04-0.88-0.08-1.21-0.08
	c-0.12,0-0.28-0.17-0.28-0.28c0-0.2,0.16-0.28,0.56-0.28c1.61,0,3.9,0.08,4.1,0.08c0.24,0,7.64,0.04,8.44,0
	c0.68-0.04,1.33-0.16,1.61-0.2c0.16-0.04,0.32-0.16,0.48-0.16c0.12,0,0.16,0.16,0.16,0.32c0,0.24-0.2,0.64-0.28,1.61
	c-0.04,0.32-0.12,1.85-0.2,2.25c-0.04,0.16-0.16,0.36-0.33,0.36c-0.2,0-0.28-0.16-0.28-0.44c0-0.24-0.04-0.8-0.2-1.21
	c-0.24-0.56-0.6-0.8-2.53-1.04c-0.6-0.07-4.71-0.12-5.11-0.12c-0.16,0-0.2,0.12-0.2,0.37v9.29c0,0.24,0,0.36,0.2,0.36
	c0.44,0,5.11,0,5.91-0.08c0.84-0.08,1.37-0.12,1.73-0.48c0.24-0.24,0.4-0.44,0.52-0.44c0.12,0,0.2,0.09,0.2,0.28
	c0,0.2-0.2,0.76-0.28,1.89c-0.08,0.68-0.16,1.97-0.16,2.21c0,0.28-0.09,0.64-0.33,0.64c-0.16,0-0.24-0.12-0.24-0.32
	c0-0.32,0-0.69-0.16-1.13c-0.12-0.48-0.44-0.88-1.81-1.05c-0.97-0.12-4.75-0.16-5.35-0.16c-0.2,0-0.24,0.12-0.24,0.24v2.85
	c0,1.16-0.04,5.14,0,5.83c0.08,2.29,0.72,2.73,4.22,2.73c0.93,0,2.61,0,3.54-0.37c0.93-0.4,1.41-1,1.61-2.37
	c0.08-0.4,0.16-0.52,0.36-0.52c0.2,0,0.24,0.28,0.24,0.52c0,0.24-0.28,2.57-0.49,3.3c-0.24,0.88-0.6,0.88-1.96,0.88
	c-2.66,0-4.71-0.08-6.16-0.12c-1.49-0.08-2.41-0.08-2.93-0.08c-0.08,0-0.76,0-1.53,0.04c-0.68,0.04-1.48,0.08-2.05,0.08
	c-0.36,0-0.56-0.08-0.56-0.28c0-0.12,0.08-0.28,0.28-0.28c0.32,0,0.76-0.12,1.09-0.16c0.68-0.13,0.76-0.8,0.92-1.81
	c0.2-1.41,0.2-4.1,0.2-7.4V478.29z"/>
<polygon class="st1" points="267.1,25.77 276.18,166.32 338.36,39.94 292.97,173.28 398.78,80.31 305.81,186.12 439.14,140.72 
	312.76,202.9 453.32,211.98 312.76,221.07 439.14,283.25 305.81,237.85 398.78,343.66 292.97,250.69 338.36,384.03 276.18,257.64 
	267.1,398.2 258.02,257.64 195.84,384.03 241.24,250.69 135.43,343.66 228.39,237.85 95.06,283.25 221.45,221.07 80.89,211.98 
	221.45,202.9 95.06,140.72 228.39,186.12 135.43,80.31 241.24,173.28 195.84,39.94 258.02,166.32 "/>
<polygon class="st2" points="267.1,25.77 276.18,166.32 338.36,39.94 292.97,173.28 398.78,80.31 305.81,186.12 439.14,140.72 
	312.76,202.9 453.32,211.98 312.76,221.07 439.14,283.25 305.81,237.85 398.78,343.66 292.97,250.69 338.36,384.03 276.18,257.64 
	267.1,398.2 258.02,257.64 195.84,384.03 241.24,250.69 135.43,343.66 228.39,237.85 95.06,283.25 221.45,221.07 80.89,211.98 
	221.45,202.9 95.06,140.72 228.39,186.12 135.43,80.31 241.24,173.28 195.84,39.94 258.02,166.32 "/>
</svg>
